<?xml version="1.0" encoding="UTF-8" standalone="no"?>
<!-- Created with Inkscape (http://www.inkscape.org/) -->

<svg
   xmlns:dc="http://purl.org/dc/elements/1.1/"
   xmlns:cc="http://creativecommons.org/ns#"
   xmlns:rdf="http://www.w3.org/1999/02/22-rdf-syntax-ns#"
   xmlns:svg="http://www.w3.org/2000/svg"
   xmlns="http://www.w3.org/2000/svg"
   xmlns:xlink="http://www.w3.org/1999/xlink"
   xmlns:sodipodi="http://sodipodi.sourceforge.net/DTD/sodipodi-0.dtd"
   xmlns:inkscape="http://www.inkscape.org/namespaces/inkscape"
   sodipodi:docname="ic_launcher.svg"
   width="48px"
   height="48px"
   id="svg2985"
   version="1.1"
   inkscape:version="0.48.4 r9939"
   inkscape:export-filename="/home/wes/AndroidStudioProjects/MobileMemento/app/src/main/res/ic_launcher.png"
   inkscape:export-xdpi="90"
   inkscape:export-ydpi="90">
  <sodipodi:namedview
     id="base"
     pagecolor="#ffffff"
     bordercolor="#666666"
     borderopacity="1.0"
     inkscape:pageopacity="0.0"
     inkscape:pageshadow="2"
     inkscape:zoom="11.313709"
     inkscape:cx="54.696321"
     inkscape:cy="27.541625"
     inkscape:current-layer="layer1"
     showgrid="true"
     inkscape:grid-bbox="true"
     inkscape:document-units="px"
     inkscape:window-width="1920"
     inkscape:window-height="993"
     inkscape:window-x="0"
     inkscape:window-y="28"
     inkscape:window-maximized="1"
     showguides="true"
     inkscape:guide-bbox="true" />
  <defs
     id="defs2987">
    <linearGradient
       inkscape:collect="always"
       id="linearGradient12163">
      <stop
         style="stop-color:#000000;stop-opacity:1;"
         offset="0"
         id="stop12165" />
      <stop
         style="stop-color:#000000;stop-opacity:0;"
         offset="1"
         id="stop12167" />
    </linearGradient>
    <linearGradient
       inkscape:collect="always"
       id="linearGradient12155">
      <stop
         style="stop-color:#000000;stop-opacity:1;"
         offset="0"
         id="stop12157" />
      <stop
         style="stop-color:#000000;stop-opacity:0;"
         offset="1"
         id="stop12159" />
    </linearGradient>
    <linearGradient
       inkscape:collect="always"
       id="linearGradient12147">
      <stop
         style="stop-color:#000000;stop-opacity:1;"
         offset="0"
         id="stop12149" />
      <stop
         style="stop-color:#000000;stop-opacity:0;"
         offset="1"
         id="stop12151" />
    </linearGradient>
    <linearGradient
       inkscape:collect="always"
       xlink:href="#linearGradient12147"
       id="linearGradient12153"
       x1="13.900888"
       y1="12.456569"
       x2="41.985653"
       y2="42.862164"
       gradientUnits="userSpaceOnUse"
       gradientTransform="matrix(0.92484139,0,0,0.92484139,1.818265,2.1219497)" />
    <linearGradient
       inkscape:collect="always"
       xlink:href="#linearGradient12155"
       id="linearGradient12161"
       x1="22.838388"
       y1="16.847918"
       x2="35.807743"
       y2="29.817272"
       gradientUnits="userSpaceOnUse"
       gradientTransform="matrix(0.92484139,0,0,0.92484139,1.818265,2.1219497)" />
    <linearGradient
       inkscape:collect="always"
       xlink:href="#linearGradient12163"
       id="linearGradient12169"
       x1="22.75"
       y1="23.845617"
       x2="33.74128"
       y2="32.803963"
       gradientUnits="userSpaceOnUse"
       gradientTransform="matrix(0.92484139,0,0,0.92484139,1.818265,2.1219497)" />
    <filter
       id="filter12257"
       style="color-interpolation-filters:sRGB;"
       inkscape:label="Drop Shadow">
      <feFlood
         id="feFlood12259"
         flood-opacity="1"
         flood-color="rgb(0,0,0)"
         result="flood" />
      <feComposite
         id="feComposite12261"
         in2="SourceGraphic"
         in="flood"
         operator="in"
         result="composite1" />
      <feGaussianBlur
         id="feGaussianBlur12263"
         in="composite"
         stdDeviation="0.2"
         result="blur" />
      <feOffset
         id="feOffset12265"
         dx="0"
         dy="0"
         result="offset" />
      <feComposite
         id="feComposite12267"
         in2="offset"
         in="SourceGraphic"
         operator="over"
         result="composite2" />
    </filter>
    <clipPath
       clipPathUnits="userSpaceOnUse"
       id="clipPath12353">
      <path
         sodipodi:type="arc"
         style="fill:#00ff00;fill-opacity:1;fill-rule:nonzero;stroke:none"
         id="path12355"
         sodipodi:cx="88.75"
         sodipodi:cy="16.0625"
         sodipodi:rx="12.75"
         sodipodi:ry="11.5625"
         d="m 101.5,16.0625 a 12.75,11.5625 0 1 1 -25.5,0 12.75,11.5625 0 1 1 25.5,0 z"
         transform="matrix(1.8823529,0,0,2.0756757,-143.05882,-9.3405402)" />
    </clipPath>
    <clipPath
       clipPathUnits="userSpaceOnUse"
       id="clipPath12357">
      <path
         sodipodi:type="arc"
         style="fill:#00ff00;fill-opacity:1;fill-rule:nonzero;stroke:none"
         id="path12359"
         sodipodi:cx="88.75"
         sodipodi:cy="16.0625"
         sodipodi:rx="12.75"
         sodipodi:ry="11.5625"
         d="m 101.5,16.0625 a 12.75,11.5625 0 1 1 -25.5,0 12.75,11.5625 0 1 1 25.5,0 z"
         transform="matrix(1.8823529,0,0,2.0756757,-143.05882,-9.3405402)" />
    </clipPath>
    <clipPath
       clipPathUnits="userSpaceOnUse"
       id="clipPath12361">
      <path
         sodipodi:type="arc"
         style="fill:#00ff00;fill-opacity:1;fill-rule:nonzero;stroke:none"
         id="path12363"
         sodipodi:cx="88.75"
         sodipodi:cy="16.0625"
         sodipodi:rx="12.75"
         sodipodi:ry="11.5625"
         d="m 101.5,16.0625 a 12.75,11.5625 0 1 1 -25.5,0 12.75,11.5625 0 1 1 25.5,0 z"
         transform="matrix(1.8823529,0,0,2.0756757,-143.05882,-9.3405402)" />
    </clipPath>
    <clipPath
       clipPathUnits="userSpaceOnUse"
       id="clipPath12365">
      <path
         sodipodi:type="arc"
         style="fill:#00ff00;fill-opacity:1;fill-rule:nonzero;stroke:none"
         id="path12367"
         sodipodi:cx="88.75"
         sodipodi:cy="16.0625"
         sodipodi:rx="12.75"
         sodipodi:ry="11.5625"
         d="m 101.5,16.0625 a 12.75,11.5625 0 1 1 -25.5,0 12.75,11.5625 0 1 1 25.5,0 z"
         transform="matrix(1.8823529,0,0,2.0756757,-143.05882,-9.3405402)" />
    </clipPath>
    <clipPath
       clipPathUnits="userSpaceOnUse"
       id="clipPath12369">
      <path
         sodipodi:type="arc"
         style="fill:#00ff00;fill-opacity:1;fill-rule:nonzero;stroke:none"
         id="path12371"
         sodipodi:cx="88.75"
         sodipodi:cy="16.0625"
         sodipodi:rx="12.75"
         sodipodi:ry="11.5625"
         d="m 101.5,16.0625 a 12.75,11.5625 0 1 1 -25.5,0 12.75,11.5625 0 1 1 25.5,0 z"
         transform="matrix(1.8823529,0,0,2.0756757,-143.05882,-9.3405402)" />
    </clipPath>
    <clipPath
       clipPathUnits="userSpaceOnUse"
       id="clipPath12373">
      <path
         sodipodi:type="arc"
         style="fill:#00ff00;fill-opacity:1;fill-rule:nonzero;stroke:none"
         id="path12375"
         sodipodi:cx="88.75"
         sodipodi:cy="16.0625"
         sodipodi:rx="12.75"
         sodipodi:ry="11.5625"
         d="m 101.5,16.0625 a 12.75,11.5625 0 1 1 -25.5,0 12.75,11.5625 0 1 1 25.5,0 z"
         transform="matrix(1.8823529,0,0,2.0756757,-143.05882,-9.3405402)" />
    </clipPath>
    <clipPath
       clipPathUnits="userSpaceOnUse"
       id="clipPath12377">
      <path
         sodipodi:type="arc"
         style="fill:#00ff00;fill-opacity:1;fill-rule:nonzero;stroke:none"
         id="path12379"
         sodipodi:cx="88.75"
         sodipodi:cy="16.0625"
         sodipodi:rx="12.75"
         sodipodi:ry="11.5625"
         d="m 101.5,16.0625 a 12.75,11.5625 0 1 1 -25.5,0 12.75,11.5625 0 1 1 25.5,0 z"
         transform="matrix(1.8823529,0,0,2.0756757,-143.05882,-9.3405402)" />
    </clipPath>
    <clipPath
       clipPathUnits="userSpaceOnUse"
       id="clipPath12381">
      <path
         sodipodi:type="arc"
         style="fill:#00ff00;fill-opacity:1;fill-rule:nonzero;stroke:none"
         id="path12383"
         sodipodi:cx="88.75"
         sodipodi:cy="16.0625"
         sodipodi:rx="12.75"
         sodipodi:ry="11.5625"
         d="m 101.5,16.0625 a 12.75,11.5625 0 1 1 -25.5,0 12.75,11.5625 0 1 1 25.5,0 z"
         transform="matrix(1.8823529,0,0,2.0756757,-143.05882,-9.3405402)" />
    </clipPath>
    <clipPath
       clipPathUnits="userSpaceOnUse"
       id="clipPath12385">
      <path
         sodipodi:type="arc"
         style="fill:#00ff00;fill-opacity:1;fill-rule:nonzero;stroke:none"
         id="path12387"
         sodipodi:cx="88.75"
         sodipodi:cy="16.0625"
         sodipodi:rx="12.75"
         sodipodi:ry="11.5625"
         d="m 101.5,16.0625 a 12.75,11.5625 0 1 1 -25.5,0 12.75,11.5625 0 1 1 25.5,0 z"
         transform="matrix(1.8823529,0,0,2.0756757,-143.05882,-9.3405402)" />
    </clipPath>
    <clipPath
       clipPathUnits="userSpaceOnUse"
       id="clipPath12389">
      <path
         sodipodi:type="arc"
         style="fill:#00ff00;fill-opacity:1;fill-rule:nonzero;stroke:none"
         id="path12391"
         sodipodi:cx="88.75"
         sodipodi:cy="16.0625"
         sodipodi:rx="12.75"
         sodipodi:ry="11.5625"
         d="m 101.5,16.0625 a 12.75,11.5625 0 1 1 -25.5,0 12.75,11.5625 0 1 1 25.5,0 z"
         transform="matrix(1.8823529,0,0,2.0756757,-143.05882,-9.3405402)" />
    </clipPath>
    <clipPath
       clipPathUnits="userSpaceOnUse"
       id="clipPath12393">
      <path
         sodipodi:type="arc"
         style="fill:#00ff00;fill-opacity:1;fill-rule:nonzero;stroke:none"
         id="path12395"
         sodipodi:cx="88.75"
         sodipodi:cy="16.0625"
         sodipodi:rx="12.75"
         sodipodi:ry="11.5625"
         d="m 101.5,16.0625 a 12.75,11.5625 0 1 1 -25.5,0 12.75,11.5625 0 1 1 25.5,0 z"
         transform="matrix(0.88614407,0,0,0.97715349,-2.8522793,-9.8125757)" />
    </clipPath>
  </defs>
  <metadata
     id="metadata2990">
    <rdf:RDF>
      <cc:Work
         rdf:about="">
        <dc:format>image/svg+xml</dc:format>
        <dc:type
           rdf:resource="http://purl.org/dc/dcmitype/StillImage" />
        <dc:title></dc:title>
      </cc:Work>
    </rdf:RDF>
  </metadata>
  <g
     id="layer1"
     inkscape:label="Layer 1"
     inkscape:groupmode="layer">
    <path
       sodipodi:type="arc"
       style="fill:#3f51b5;fill-opacity:1;fill-rule:nonzero;stroke:none;filter:url(#filter12257)"
       id="path12171"
       sodipodi:cx="75.793007"
       sodipodi:cy="5.8829522"
       sodipodi:rx="10.827573"
       sodipodi:ry="10.827573"
       d="m 86.62058,5.8829522 a 10.827573,10.827573 0 1 1 -21.655146,0 10.827573,10.827573 0 1 1 21.655146,0 z"
       transform="matrix(2.1242064,0,0,2.1242064,-136.99999,11.503396)"
       clip-path="url(#clipPath12393)"
       inkscape:export-filename="/home/wes/AndroidStudioProjects/MobileMemento/app/src/main/res/drawable-xxhdpi/ic_launcher.png"
       inkscape:export-xdpi="360"
       inkscape:export-ydpi="360" />
    <path
       style="fill:none"
       inkscape:connector-curvature="0"
       d="M 4.1964286,5.1607143 H 41.190083 V 42.154369 H 4.1964286 z"
       id="path3038"
       clip-path="url(#clipPath12389)"
       inkscape:export-filename="/home/wes/AndroidStudioProjects/MobileMemento/app/src/main/res/drawable-xxhdpi/ic_launcher.png"
       inkscape:export-xdpi="360"
       inkscape:export-ydpi="360" />
    <path
       style="opacity:0.15;fill:#000000"
       d="m 15.083959,32.786222 1.531768,-1.502867 c 0.974937,0.974937 2.14833,1.768277 3.439254,2.312103 1.290924,0.543826 2.699381,0.838138 4.190688,0.838138 1.48938,0 2.900786,-0.292927 4.190687,-0.838138 1.289901,-0.54521 2.464076,-1.336926 3.439254,-2.312103 0.975178,-0.975178 1.766893,-2.149353 2.312104,-3.439254 0.54521,-1.289901 0.838137,-2.701307 0.838137,-4.190688 0,-1.489379 -0.292927,-2.900786 -0.838137,-4.190687 -0.545211,-1.289902 -1.336926,-2.464076 -2.312104,-3.439254 -0.975178,-0.975178 -2.149353,-1.766893 -3.439254,-2.312104 -1.289901,-0.54521 -2.701307,-0.838137 -4.190687,-0.838137 -1.48938,0 -2.898078,0.292927 -4.190688,0.838137 -1.29261,0.545211 -2.460464,1.336926 -3.439254,2.312104 -0.97879,0.975178 -1.793084,2.149352 -2.341005,3.439254 -0.54792,1.289901 -0.838137,2.701308 -0.838137,4.190687 l 4.624207,0 -6.184877,6.213778 0.144507,0.173408 0.0289,-0.0289 0.144506,0.173408 0.0289,-0.0289 0.144506,0.173408 0.144507,0.173408 0.0289,-0.0289 0.144506,0.173408 0.0289,-0.0289 0.144506,0.173408 0.0289,-0.0289 0.144507,0.173408 0.173408,0.173408 0.0289,-0.0289 0.289013,0.317914 0.0289,-0.0289 0.144507,0.173407 0.173407,0.173408 0.0289,-0.0289 0.144506,0.173408 0.0289,-0.0289 0.144507,0.173408 0.0289,-0.0289 0.144507,0.173407 0.173407,0.173408 0.144507,0.144507 0.0289,-0.0289 0.144507,0.173408 0.0289,-0.0289 0.173408,0.202309 z"
       id="path12143"
       inkscape:connector-curvature="0"
       clip-path="url(#clipPath12385)"
       inkscape:export-filename="/home/wes/AndroidStudioProjects/MobileMemento/app/src/main/res/drawable-xxhdpi/ic_launcher.png"
       inkscape:export-xdpi="360"
       inkscape:export-ydpi="360" />
    <path
       style="opacity:0.3;fill:url(#linearGradient12153);fill-opacity:1"
       d="m 34.043207,13.855875 c 0.629206,0.62764 1.205162,1.313955 1.705176,2.051992 0.500015,0.738036 0.919573,1.511176 1.271657,2.341004 0.352085,0.829829 0.623824,1.698102 0.809236,2.601117 0.185413,0.903015 0.289013,1.845829 0.289013,2.803425 0,0.957597 -0.1036,1.900411 -0.289013,2.803426 -0.185412,0.903015 -0.457151,1.771287 -0.809236,2.601116 -0.352084,0.829829 -0.771642,1.602968 -1.271657,2.341005 -0.500014,0.738036 -1.07597,1.424352 -1.705176,2.051992 -0.629206,0.62764 -1.312337,1.206539 -2.051992,1.705176 -0.739655,0.498637 -1.538542,0.920627 -2.369906,1.271657 -0.831364,0.35103 -1.696784,0.624419 -2.601116,0.809236 -0.904332,0.184818 -1.844866,0.289013 -2.803426,0.289013 -0.957596,0 -1.901043,-0.103262 -2.803425,-0.289013 C 20.510959,37.05127 19.64097,36.78014 18.812225,36.427785 17.983481,36.07543 17.207902,35.65594 16.471221,35.156128 15.803003,34.702767 15.199555,34.15512 14.621538,33.595458 l -0.0289,0.0289 c 0.0531,0.05326 0.11946,0.09211 0.173407,0.144507 0.0531,0.05326 0.11946,0.09211 0.173408,0.144506 0.114311,0.107485 0.228913,0.21432 0.346816,0.317915 0.05042,0.04576 0.09342,0.09948 0.144506,0.144506 0.05182,0.0442 0.09203,0.101057 0.144507,0.144507 0.0053,0.0052 0.02359,-0.0052 0.0289,0 0.03133,0.02585 0.05515,0.06113 0.0867,0.0867 0.02088,0.0175 0.03681,0.04042 0.0578,0.0578 0.0061,0.0049 0.02278,-0.0049 0.0289,0 0.0293,0.02846 0.05715,0.0585 0.0867,0.0867 0.0197,0.0188 0.03799,0.03912 0.0578,0.0578 0.01019,0.009 0.01868,0.0199 0.0289,0.0289 0.01913,0.01919 0.03856,0.03873 0.0578,0.0578 0.02631,0.02212 0.06022,0.03588 0.0867,0.0578 0.0096,0.0094 0.01924,0.01952 0.0289,0.0289 0.0096,0.0096 0.0193,0.01933 0.0289,0.0289 0.04156,0.03524 0.07362,0.08084 0.115606,0.115605 0.05182,0.0442 0.09203,0.101057 0.144506,0.144506 0.0051,0.0045 0.02379,-0.0045 0.0289,0 0.05182,0.04421 0.09203,0.101058 0.144507,0.144507 0.01019,0.009 0.01868,0.01989 0.0289,0.0289 0.04694,0.03992 0.09704,0.0763 0.144507,0.115605 0.0097,0.0095 0.01917,0.01945 0.0289,0.0289 0.05182,0.0442 0.09203,0.101058 0.144506,0.144507 0.0053,0.0052 0.0236,-0.0052 0.0289,0 0.03133,0.02585 0.05515,0.06113 0.0867,0.0867 0.04727,0.03961 0.09671,0.07662 0.144506,0.115605 0.03125,0.02634 0.05522,0.06064 0.0867,0.0867 0.01021,0.009 0.01867,0.01991 0.0289,0.0289 0.0096,0.0096 0.0193,0.01933 0.0289,0.0289 0.03612,0.03053 0.07917,0.05654 0.115605,0.0867 0.05693,0.04871 0.08678,0.125614 0.144506,0.173408 0.0051,0.0045 0.02379,-0.0045 0.0289,0 0.03133,0.02585 0.05515,0.06113 0.0867,0.0867 0.02089,0.0175 0.03681,0.04042 0.0578,0.0578 0.0061,0.0049 0.02278,-0.0049 0.0289,0 0.04884,0.04743 0.09498,0.09779 0.144507,0.144507 0.01019,0.009 0.01868,0.01989 0.0289,0.0289 0.01913,0.01919 0.03856,0.03873 0.0578,0.0578 0.02631,0.02212 0.06022,0.03588 0.0867,0.0578 0.0096,0.0094 0.01924,0.01952 0.0289,0.0289 0.01913,0.01919 0.03856,0.03873 0.0578,0.0578 0.03125,0.02634 0.05522,0.06064 0.0867,0.0867 0.0055,0.0054 0.02338,-0.0054 0.0289,0 0.03133,0.02585 0.05515,0.06113 0.0867,0.0867 0.02033,0.01813 0.03737,0.03979 0.0578,0.0578 0.05182,0.0442 0.09203,0.101057 0.144506,0.144506 0.01019,0.009 0.01868,0.01989 0.0289,0.0289 0.04693,0.03992 0.09704,0.0763 0.144506,0.115606 0.0097,0.0095 0.01917,0.01945 0.0289,0.0289 0.05182,0.0442 0.09203,0.101057 0.144507,0.144506 0.0053,0.0052 0.0236,-0.0052 0.0289,0 0.03133,0.02585 0.05515,0.06113 0.0867,0.0867 0.04763,0.03992 0.09633,0.07632 0.144507,0.115605 0.03125,0.02634 0.05522,0.06064 0.0867,0.0867 0.01021,0.009 0.01867,0.01991 0.0289,0.0289 0.0096,0.0096 0.0193,0.01933 0.0289,0.0289 0.03665,0.03099 0.07863,0.05609 0.115605,0.0867 0.05693,0.04871 0.08678,0.125614 0.144507,0.173408 0.0051,0.0045 0.02379,-0.0045 0.0289,0 0.03133,0.02585 0.05515,0.06113 0.0867,0.0867 0.02089,0.0175 0.03681,0.04042 0.0578,0.0578 0.0061,0.0049 0.02278,-0.0049 0.0289,0 0.03133,0.02585 0.05515,0.06113 0.0867,0.0867 0.0197,0.0188 0.03799,0.03912 0.0578,0.0578 0.01019,0.009 0.01868,0.0199 0.0289,0.0289 0.01913,0.01919 0.03856,0.03873 0.0578,0.0578 0.02631,0.02212 0.06022,0.03588 0.0867,0.0578 0.0096,0.0094 0.01924,0.01952 0.0289,0.0289 0.01913,0.01919 0.03856,0.03873 0.0578,0.0578 0.03125,0.02634 0.05522,0.06063 0.0867,0.0867 0.0055,0.0054 0.02338,-0.0054 0.0289,0 0.03133,0.02585 0.05515,0.06112 0.0867,0.0867 0.02033,0.01813 0.03737,0.03979 0.0578,0.0578 0.05182,0.0442 0.09203,0.101058 0.144507,0.144507 0.01019,0.009 0.01868,0.01989 0.0289,0.0289 0.04694,0.03992 0.09704,0.0763 0.144507,0.115605 0.0095,0.0093 0.01932,0.0196 0.0289,0.0289 0.05182,0.04421 0.09203,0.101058 0.144506,0.144507 0.0053,0.0052 0.0236,-0.0052 0.0289,0 0.03133,0.02585 0.05515,0.06112 0.0867,0.0867 0.02089,0.0175 0.03681,0.04042 0.0578,0.0578 0.0061,0.0049 0.02278,-0.0049 0.0289,0 0.03133,0.02585 0.05515,0.06113 0.0867,0.0867 0.0197,0.0188 0.03799,0.03912 0.0578,0.0578 0.0098,0.0095 0.01912,0.01943 0.0289,0.0289 0.0096,0.0096 0.0193,0.01933 0.0289,0.0289 0.03665,0.03099 0.07863,0.05609 0.115605,0.0867 0.0097,0.0095 0.01919,0.01947 0.0289,0.0289 0.0096,0.0096 0.0193,0.01933 0.0289,0.0289 0.04088,0.03465 0.07432,0.08143 0.115606,0.115605 0.05182,0.0442 0.09203,0.101057 0.144506,0.144506 0.0051,0.0045 0.02379,-0.0045 0.0289,0 0.03133,0.02585 0.05515,0.06113 0.0867,0.0867 0.02089,0.0175 0.03681,0.04042 0.0578,0.0578 0.01019,0.009 0.01868,0.0199 0.0289,0.0289 0.04694,0.03992 0.09704,0.0763 0.144507,0.115605 0.0097,0.0095 0.01917,0.01945 0.0289,0.0289 0.01913,0.01919 0.03856,0.03873 0.0578,0.0578 0.03125,0.02634 0.05522,0.06063 0.0867,0.0867 0.0055,0.0054 0.02338,-0.0054 0.0289,0 0.03133,0.02585 0.05515,0.06113 0.0867,0.0867 0.04763,0.03992 0.09633,0.07632 0.144507,0.115605 0.03125,0.02634 0.05522,0.06064 0.0867,0.0867 0.01021,0.009 0.01867,0.01991 0.0289,0.0289 0.04156,0.03524 0.07362,0.08085 0.115605,0.115606 0.01019,0.009 0.01868,0.01989 0.0289,0.0289 0.05182,0.0442 0.09203,0.101057 0.144506,0.144506 0.0053,0.0052 0.0236,-0.0052 0.0289,0 0.03133,0.02585 0.05515,0.06113 0.0867,0.0867 0.02089,0.0175 0.03681,0.04042 0.0578,0.0578 0.0061,0.0049 0.02278,-0.0049 0.0289,0 0.03133,0.02585 0.05515,0.06112 0.0867,0.0867 0.0197,0.0188 0.03799,0.03912 0.0578,0.0578 0.01019,0.009 0.01868,0.01989 0.0289,0.0289 0.01913,0.01919 0.03856,0.03873 0.0578,0.0578 0.02631,0.02212 0.06022,0.03588 0.0867,0.0578 0.0096,0.0094 0.01924,0.01952 0.0289,0.0289 0.0096,0.0096 0.0193,0.01933 0.0289,0.0289 0.04156,0.03524 0.07362,0.08085 0.115605,0.115605 0.05182,0.04421 0.09203,0.101058 0.144507,0.144507 0.0051,0.0045 0.02379,-0.0045 0.0289,0 0.03133,0.02585 0.05515,0.06112 0.0867,0.0867 0.02088,0.0175 0.03681,0.04042 0.0578,0.0578 0.01019,0.009 0.01868,0.0199 0.0289,0.0289 0.04694,0.03992 0.09704,0.0763 0.144506,0.115605 0.0097,0.0095 0.01917,0.01945 0.0289,0.0289 0.01913,0.01919 0.03856,0.03873 0.0578,0.0578 0.03125,0.02634 0.05522,0.06063 0.0867,0.0867 0.0055,0.0054 0.02338,-0.0054 0.0289,0 0.03133,0.02585 0.05515,0.06112 0.0867,0.0867 0.04763,0.03992 0.09633,0.07632 0.144506,0.115606 0.03125,0.02634 0.05522,0.06064 0.0867,0.0867 0.01021,0.009 0.01867,0.01991 0.0289,0.0289 0.04156,0.03524 0.07362,0.08085 0.115605,0.115605 0.01019,0.009 0.01868,0.0199 0.0289,0.0289 0.05182,0.0442 0.09203,0.101058 0.144507,0.144507 0.0053,0.0052 0.02359,-0.0052 0.0289,0 0.03133,0.02585 0.05515,0.06112 0.0867,0.0867 0.02088,0.0175 0.03681,0.04042 0.0578,0.0578 0.0061,0.0049 0.02278,-0.0049 0.0289,0 0.03133,0.02585 0.05515,0.06113 0.0867,0.0867 0.0197,0.0188 0.03799,0.03912 0.0578,0.0578 0.01019,0.009 0.01868,0.0199 0.0289,0.0289 0.01913,0.01919 0.03856,0.03873 0.0578,0.0578 0.02631,0.02212 0.06022,0.03588 0.0867,0.0578 0.0096,0.0094 0.01924,0.01952 0.0289,0.0289 0.0096,0.0096 0.0193,0.01933 0.0289,0.0289 0.04156,0.03524 0.07362,0.08085 0.115606,0.115605 0.05182,0.0442 0.09203,0.101057 0.144506,0.144506 0.0051,0.0045 0.02379,-0.0045 0.0289,0 0.03133,0.02585 0.05515,0.06113 0.0867,0.0867 0.02089,0.0175 0.03681,0.04042 0.0578,0.0578 0.01019,0.009 0.01868,0.01989 0.0289,0.0289 0.04694,0.03992 0.09704,0.0763 0.144507,0.115605 0.0097,0.0095 0.01917,0.01945 0.0289,0.0289 0.05182,0.0442 0.09203,0.101057 0.144506,0.144506 0.0053,0.0052 0.0236,-0.0052 0.0289,0 0.03133,0.02585 0.05515,0.06113 0.0867,0.0867 0.04763,0.03992 0.09633,0.07632 0.144506,0.115605 0.03125,0.02634 0.05522,0.06064 0.0867,0.0867 0.01021,0.009 0.01867,0.01991 0.0289,0.0289 0.0096,0.0096 0.0193,0.01933 0.0289,0.0289 0.03665,0.03099 0.07863,0.05609 0.115606,0.0867 0.05693,0.04871 0.08678,0.125614 0.144506,0.173408 0.0051,0.0045 0.02379,-0.0045 0.0289,0 0.03133,0.02585 0.05515,0.06113 0.0867,0.0867 0.02089,0.0175 0.03681,0.04042 0.0578,0.0578 0.0061,0.0049 0.02278,-0.0049 0.0289,0 0.03133,0.02585 0.05515,0.06112 0.0867,0.0867 0.04727,0.03961 0.09671,0.07662 0.144506,0.115605 0.03077,0.02688 0.05569,0.06009 0.0867,0.0867 0.01019,0.009 0.01868,0.0199 0.0289,0.0289 0.0381,0.03821 0.07707,0.07784 0.115605,0.115605 0.01047,0.0087 0.01841,0.02021 0.0289,0.0289 0.0046,0.0044 0.02433,-0.0044 0.0289,0 0.03133,0.02585 0.05515,0.06113 0.0867,0.0867 0.02089,0.0175 0.03681,0.04042 0.0578,0.0578 0.05182,0.0442 0.09203,0.101057 0.144506,0.144506 0.0049,0.0048 0.02403,-0.0048 0.0289,0 0.05182,0.0442 0.09203,0.101058 0.144506,0.144507 0.01019,0.009 0.01868,0.0199 0.0289,0.0289 0.0381,0.03822 0.07707,0.07784 0.115606,0.115605 0.01032,0.0086 0.01855,0.02033 0.0289,0.0289 0.0061,0.0059 0.02281,-0.0059 0.0289,0 0.03133,0.02585 0.05515,0.06113 0.0867,0.0867 0.02089,0.0175 0.03681,0.04042 0.0578,0.0578 0.0061,0.0049 0.02278,-0.0049 0.0289,0 0.03133,0.02585 0.05515,0.06113 0.0867,0.0867 0.04727,0.03961 0.09671,0.07662 0.144506,0.115605 0.03125,0.02634 0.05522,0.06064 0.0867,0.0867 0.05615,0.04801 0.08759,0.126281 0.144507,0.173408 0.0051,0.0045 0.02379,-0.0045 0.0289,0 0.03133,0.02585 0.05515,0.06113 0.0867,0.0867 0.02088,0.0175 0.03681,0.04042 0.0578,0.0578 0.0061,0.0049 0.02278,-0.0049 0.0289,0 0.03133,0.02585 0.05515,0.06113 0.0867,0.0867 0.02088,0.0175 0.03681,0.04042 0.0578,0.0578 0.0061,0.0049 0.02278,-0.0049 0.0289,0 0.04884,0.04743 0.09498,0.09779 0.144507,0.144506 0.01019,0.009 0.01868,0.01989 0.0289,0.0289 0.01913,0.01919 0.03856,0.03873 0.0578,0.0578 0.02631,0.02212 0.06022,0.03588 0.0867,0.0578 0.0096,0.0094 0.01924,0.01952 0.0289,0.0289 0.0096,0.0096 0.0193,0.01932 0.0289,0.0289 0.04156,0.03524 0.07362,0.08085 0.115605,0.115605 0.05182,0.0442 0.09203,0.101058 0.144507,0.144507 0.0051,0.0045 0.02379,-0.0045 0.0289,0 0.05182,0.0442 0.09203,0.101057 0.144507,0.144506 0.01019,0.009 0.01868,0.01989 0.0289,0.0289 0.04694,0.03992 0.09704,0.0763 0.144506,0.115605 0.0097,0.0095 0.01917,0.01945 0.0289,0.0289 0.05182,0.0442 0.09203,0.101057 0.144506,0.144507 0.0053,0.0052 0.0236,-0.0052 0.0289,0 0.03133,0.02585 0.05515,0.06112 0.0867,0.0867 0.04727,0.03961 0.09671,0.07662 0.144507,0.115606 0.03125,0.02634 0.05522,0.06064 0.0867,0.0867 0.01021,0.009 0.01867,0.01991 0.0289,0.0289 0.0096,0.0096 0.0193,0.01933 0.0289,0.0289 0.03665,0.03099 0.07863,0.05609 0.115605,0.0867 0.05693,0.04871 0.08678,0.125614 0.144507,0.173408 0.0051,0.0045 0.02379,-0.0045 0.0289,0 0.03133,0.02585 0.05515,0.06113 0.0867,0.0867 0.02089,0.0175 0.03681,0.04042 0.0578,0.0578 0.0061,0.0049 0.02278,-0.0049 0.0289,0 0.04884,0.04743 0.09498,0.09779 0.144506,0.144507 0.01019,0.009 0.01868,0.01989 0.0289,0.0289 0.01913,0.01919 0.03856,0.03873 0.0578,0.0578 0.02631,0.02212 0.06022,0.03588 0.0867,0.0578 0.0096,0.0094 0.01924,0.01952 0.0289,0.0289 0.01913,0.01919 0.03857,0.03873 0.0578,0.0578 0.03125,0.02634 0.05522,0.06063 0.0867,0.0867 0.0055,0.0054 0.02338,-0.0054 0.0289,0 0.03133,0.02585 0.05515,0.06113 0.0867,0.0867 0.02033,0.01813 0.03737,0.03979 0.0578,0.0578 0.05182,0.04421 0.09203,0.101058 0.144506,0.144507 0.01019,0.009 0.01868,0.01989 0.0289,0.0289 0.04694,0.03992 0.09704,0.0763 0.144507,0.115605 0.0097,0.0095 0.01917,0.01945 0.0289,0.0289 0.05182,0.0442 0.09203,0.101057 0.144507,0.144506 0.0053,0.0052 0.02359,-0.0052 0.0289,0 0.03133,0.02585 0.05515,0.06113 0.0867,0.0867 0.04727,0.03961 0.09671,0.07662 0.144506,0.115605 0.03125,0.02634 0.05522,0.06064 0.0867,0.0867 0.01021,0.009 0.01867,0.01991 0.0289,0.0289 0.0096,0.0096 0.0193,0.01933 0.0289,0.0289 0.03665,0.03099 0.07863,0.05609 0.115605,0.0867 0.05693,0.04871 0.08678,0.125614 0.144506,0.173408 0.0051,0.0045 0.02379,-0.0045 0.0289,0 0.03133,0.02585 0.05515,0.06113 0.0867,0.0867 0.02088,0.0175 0.03681,0.04042 0.0578,0.0578 0.0061,0.0049 0.02278,-0.0049 0.0289,0 0.04884,0.04743 0.09498,0.09779 0.144507,0.144506 0.01019,0.009 0.01868,0.01989 0.0289,0.0289 0.01913,0.01919 0.03856,0.03873 0.0578,0.0578 0.02631,0.02212 0.06022,0.03588 0.0867,0.0578 0.0096,0.0094 0.01924,0.01952 0.0289,0.0289 0.01913,0.01919 0.03856,0.03873 0.0578,0.0578 0.03125,0.02634 0.05522,0.06064 0.0867,0.0867 0.0055,0.0054 0.02338,-0.0054 0.0289,0 0.03133,0.02585 0.05515,0.06113 0.0867,0.0867 0.02088,0.0175 0.03681,0.04042 0.0578,0.0578 0.05182,0.0442 0.09203,0.101057 0.144507,0.144506 0.01551,0.01375 0.04223,0.01522 0.0578,0.0289 0.04156,0.03524 0.07362,0.08084 0.115605,0.115605 0.01019,0.009 0.01868,0.01989 0.0289,0.0289 0.05182,0.0442 0.09203,0.101057 0.144506,0.144506 0.0053,0.0052 0.0236,-0.0052 0.0289,0 0.03133,0.02585 0.05515,0.06113 0.0867,0.0867 0.02089,0.0175 0.03681,0.04042 0.0578,0.0578 0.0061,0.0049 0.02278,-0.0049 0.0289,0 0.04884,0.04743 0.09498,0.09779 0.144507,0.144506 0.01019,0.009 0.01868,0.0199 0.0289,0.0289 0.01913,0.01919 0.03856,0.03873 0.0578,0.0578 0.02631,0.02212 0.06022,0.03588 0.0867,0.0578 0.0096,0.0094 0.01924,0.01952 0.0289,0.0289 0.0096,0.0096 0.0193,0.01933 0.0289,0.0289 0.04156,0.03524 0.07362,0.08085 0.115605,0.115606 0.05182,0.0442 0.09203,0.101057 0.144507,0.144506 0.0051,0.0045 0.02379,-0.0045 0.0289,0 0.05182,0.0442 0.09203,0.101058 0.144506,0.144507 0.01019,0.009 0.01868,0.01989 0.0289,0.0289 0.04693,0.03992 0.09704,0.0763 0.144506,0.115605 0.0097,0.0095 0.01917,0.01945 0.0289,0.0289 0.01913,0.01919 0.03856,0.03873 0.0578,0.0578 0.03125,0.02634 0.05522,0.06063 0.0867,0.0867 0.0055,0.0054 0.02338,-0.0054 0.0289,0 0.03133,0.02585 0.05515,0.06112 0.0867,0.0867 0.04727,0.03961 0.09671,0.07662 0.144507,0.115605 0.03125,0.02634 0.05522,0.06064 0.0867,0.0867 0.01021,0.009 0.01867,0.01991 0.0289,0.0289 0.04156,0.03524 0.07362,0.08085 0.115605,0.115605 0.01019,0.009 0.01868,0.01989 0.0289,0.0289 0.05182,0.04421 0.09203,0.101058 0.144507,0.144507 0.0053,0.0052 0.02359,-0.0052 0.0289,0 0.03133,0.02585 0.05515,0.06113 0.0867,0.0867 0.02089,0.0175 0.03681,0.04042 0.0578,0.0578 0.0061,0.0049 0.02278,-0.0049 0.0289,0 0.04884,0.04743 0.09498,0.09779 0.144506,0.144507 0.01019,0.009 0.01868,0.01989 0.0289,0.0289 0.01913,0.01919 0.03856,0.03873 0.0578,0.0578 0.02631,0.02212 0.06022,0.03588 0.0867,0.0578 0.0096,0.0094 0.01924,0.01952 0.0289,0.0289 0.0096,0.0096 0.0193,0.01933 0.0289,0.0289 0.04156,0.03524 0.07362,0.08085 0.115605,0.115605 0.05182,0.0442 0.09203,0.101058 0.144506,0.144507 0.0051,0.0045 0.02379,-0.0045 0.0289,0 0.05182,0.0442 0.09203,0.101057 0.144506,0.144506 0.01019,0.009 0.01868,0.0199 0.0289,0.0289 0.04694,0.03992 0.09704,0.0763 0.144507,0.115606 0.0097,0.0095 0.01917,0.01945 0.0289,0.0289 0.01913,0.01919 0.03856,0.03873 0.0578,0.0578 0.03125,0.02634 0.05522,0.06063 0.0867,0.0867 0.0055,0.0054 0.02338,-0.0054 0.0289,0 0.03133,0.02585 0.05515,0.06113 0.0867,0.0867 0.04727,0.03961 0.09671,0.07662 0.144506,0.115605 0.03125,0.02634 0.05522,0.06064 0.0867,0.0867 0.01021,0.009 0.01867,0.01991 0.0289,0.0289 0.0096,0.0096 0.0193,0.01933 0.0289,0.0289 0.03125,0.02634 0.05522,0.06063 0.0867,0.0867 0.06203,0.05322 0.110437,0.121269 0.173407,0.173407 0.0051,0.0045 0.02379,-0.0045 0.0289,0 0.03133,0.02585 0.05515,0.06113 0.0867,0.0867 0.02089,0.0175 0.03681,0.04042 0.0578,0.0578 0.0061,0.0049 0.02278,-0.0049 0.0289,0 0.04884,0.04743 0.09498,0.09779 0.144507,0.144506 0.01019,0.009 0.01868,0.0199 0.0289,0.0289 0.01913,0.01919 0.03856,0.03873 0.0578,0.0578 0.02631,0.02212 0.06022,0.03588 0.0867,0.0578 0.0096,0.0094 0.01924,0.01952 0.0289,0.0289 0.01913,0.01919 0.03856,0.03873 0.0578,0.0578 0.03125,0.02634 0.05522,0.06063 0.0867,0.0867 0.0055,0.0054 0.02338,-0.0054 0.0289,0 0.03133,0.02585 0.05515,0.06112 0.0867,0.0867 0.02033,0.01813 0.03737,0.03979 0.0578,0.0578 0.05182,0.0442 0.09203,0.101057 0.144507,0.144507 0.01019,0.009 0.01868,0.01989 0.0289,0.0289 0.04694,0.03992 0.09704,0.0763 0.144506,0.115605 0.0097,0.0095 0.01917,0.01945 0.0289,0.0289 0.05182,0.0442 0.09203,0.101058 0.144506,0.144507 0.0053,0.0052 0.0236,-0.0052 0.0289,0 0.03133,0.02585 0.05515,0.06112 0.0867,0.0867 0.04727,0.03961 0.09671,0.07662 0.144507,0.115605 0.03125,0.02634 0.05522,0.06064 0.0867,0.0867 0.01021,0.009 0.01867,0.01991 0.0289,0.0289 0.0096,0.0096 0.0193,0.01932 0.0289,0.0289 0.03665,0.03099 0.07863,0.05609 0.115605,0.0867 0.05693,0.04871 0.08678,0.125614 0.144507,0.173408 0.0051,0.0045 0.02379,-0.0045 0.0289,0 0.03133,0.02585 0.05515,0.06113 0.0867,0.0867 0.02089,0.0175 0.03681,0.04042 0.0578,0.0578 0.0061,0.0049 0.02278,-0.0049 0.0289,0 0.031,0.02558 0.05548,0.06139 0.0867,0.0867 0.0197,0.0188 0.03799,0.03912 0.0578,0.0578 0.01019,0.009 0.01868,0.01989 0.0289,0.0289 0.01913,0.01919 0.03856,0.03873 0.0578,0.0578 0.02631,0.02212 0.06022,0.03588 0.0867,0.0578 0.0096,0.0094 0.01924,0.01952 0.0289,0.0289 0.01913,0.01919 0.03856,0.03873 0.0578,0.0578 0.03125,0.02634 0.05522,0.06063 0.0867,0.0867 0.0055,0.0054 0.02338,-0.0054 0.0289,0 0.03133,0.02585 0.05515,0.06113 0.0867,0.0867 0.02033,0.01813 0.03737,0.03979 0.0578,0.0578 0.05182,0.0442 0.09203,0.101057 0.144506,0.144506 0.01019,0.009 0.01868,0.01989 0.0289,0.0289 0.04694,0.03992 0.09704,0.0763 0.144507,0.115605 0.0097,0.0095 0.01917,0.01945 0.0289,0.0289 0.05182,0.0442 0.09203,0.101057 0.144507,0.144506 0.0053,0.0052 0.02359,-0.0052 0.0289,0 0.03133,0.02585 0.05515,0.06113 0.0867,0.0867 0.04727,0.03961 0.09671,0.07662 0.144506,0.115605 0.03125,0.02634 0.05522,0.06064 0.0867,0.0867 0.01021,0.009 0.01867,0.01991 0.0289,0.0289 0.0096,0.0096 0.0193,0.01933 0.0289,0.0289 0.03665,0.03099 0.07863,0.05609 0.115605,0.0867 0.09373,0.08019 0.164245,0.182406 0.260112,0.260111 0.02088,0.0175 0.03681,0.04042 0.0578,0.0578 0.0061,0.0049 0.02278,-0.0049 0.0289,0 0.031,0.02558 0.05548,0.06139 0.0867,0.0867 0.02089,0.0175 0.03681,0.04042 0.0578,0.0578 0.01019,0.009 0.01868,0.0199 0.0289,0.0289 0.04694,0.03992 0.09704,0.0763 0.144507,0.115605 0.0097,0.0095 0.01917,0.01945 0.0289,0.0289 0.01913,0.01919 0.03856,0.03873 0.0578,0.0578 0.03125,0.02634 0.05522,0.06063 0.0867,0.0867 0.0055,0.0054 0.02338,-0.0054 0.0289,0 0.03133,0.02585 0.05515,0.06113 0.0867,0.0867 0.04727,0.03961 0.09671,0.07662 0.144506,0.115606 0.03125,0.02634 0.05522,0.06064 0.0867,0.0867 0.01021,0.009 0.01867,0.01991 0.0289,0.0289 0.04156,0.03524 0.07362,0.08085 0.115605,0.115605 0.01019,0.009 0.01868,0.01989 0.0289,0.0289 0.05182,0.0442 0.09203,0.101058 0.144506,0.144507 0.0053,0.0052 0.0236,-0.0052 0.0289,0 0.03133,0.02585 0.05515,0.06113 0.0867,0.0867 0.02089,0.0175 0.03681,0.04042 0.0578,0.0578 0.0061,0.0049 0.02278,-0.0049 0.0289,0 0.031,0.02558 0.05548,0.06139 0.0867,0.0867 0.01939,0.01912 0.0383,0.0388 0.0578,0.0578 0.01019,0.009 0.01868,0.01989 0.0289,0.0289 0.01913,0.01919 0.03856,0.03873 0.0578,0.0578 0.02631,0.02212 0.06022,0.03588 0.0867,0.0578 0.0096,0.0094 0.01924,0.01952 0.0289,0.0289 0.0096,0.0096 0.0193,0.01933 0.0289,0.0289 0.04156,0.03524 0.07362,0.08085 0.115605,0.115605 0.05182,0.04421 0.09203,0.101057 0.144507,0.144506 0.0051,0.0045 0.02379,-0.0045 0.0289,0 0.031,0.02558 0.05548,0.06139 0.0867,0.0867 0.02089,0.0175 0.03681,0.04042 0.0578,0.0578 0.01019,0.009 0.01868,0.01989 0.0289,0.0289 0.04694,0.03992 0.09704,0.0763 0.144506,0.115605 0.0097,0.0095 0.01917,0.01945 0.0289,0.0289 0.01913,0.01919 0.03856,0.03873 0.0578,0.0578 0.03125,0.02634 0.05522,0.06064 0.0867,0.0867 0.0055,0.0054 0.02338,-0.0054 0.0289,0 0.03133,0.02585 0.05515,0.06113 0.0867,0.0867 0.04727,0.03961 0.09671,0.07662 0.144507,0.115605 0.03125,0.02634 0.05522,0.06064 0.0867,0.0867 0.01021,0.009 0.01867,0.01991 0.0289,0.0289 0.04156,0.03524 0.07362,0.08085 0.115605,0.115605 0.01019,0.009 0.01868,0.0199 0.0289,0.0289 0.05182,0.0442 0.09203,0.101057 0.144507,0.144506 0.0053,0.0052 0.02359,-0.0052 0.0289,0 0.03133,0.02585 0.05515,0.06113 0.0867,0.0867 0.02089,0.0175 0.03681,0.04042 0.0578,0.0578 0.0061,0.0049 0.02278,-0.0049 0.0289,0 0.031,0.02558 0.05548,0.06139 0.0867,0.0867 0.01939,0.01912 0.03829,0.0388 0.0578,0.0578 0.01019,0.009 0.01868,0.01989 0.0289,0.0289 0.01913,0.01919 0.03856,0.03873 0.0578,0.0578 0.02631,0.02212 0.06022,0.03588 0.0867,0.0578 0.0096,0.0094 0.01924,0.01952 0.0289,0.0289 0.0096,0.0096 0.0193,0.01933 0.0289,0.0289 0.04156,0.03524 0.07362,0.08085 0.115605,0.115605 0.05182,0.0442 0.09203,0.101058 0.144506,0.144507 0.0051,0.0045 0.02379,-0.0045 0.0289,0 0.031,0.02558 0.05548,0.06139 0.0867,0.0867 0.02089,0.0175 0.03681,0.04042 0.0578,0.0578 0.01019,0.009 0.01868,0.0199 0.0289,0.0289 0.04694,0.03992 0.09704,0.0763 0.144507,0.115605 0.0097,0.0095 0.01917,0.01945 0.0289,0.0289 0.05182,0.0442 0.09203,0.101057 0.144506,0.144507 0.0053,0.0052 0.0236,-0.0052 0.0289,0 0.03133,0.02585 0.05515,0.06113 0.0867,0.0867 0.04727,0.03961 0.09671,0.07662 0.144506,0.115606 0.03125,0.02634 0.05522,0.06064 0.0867,0.0867 0.01021,0.009 0.01867,0.01991 0.0289,0.0289 0.0096,0.0096 0.0193,0.01933 0.0289,0.0289 0.03612,0.03053 0.07917,0.05654 0.115605,0.0867 0.05693,0.04871 0.08678,0.125614 0.144506,0.173408 0.0051,0.0045 0.02379,-0.0045 0.0289,0 0.01006,0.0092 0.01882,0.01977 0.0289,0.0289 0.02094,0.01717 0.03676,0.04075 0.0578,0.0578 0.04727,0.03961 0.09671,0.07662 0.144507,0.115605 0.05172,0.0436 0.09214,0.101654 0.144506,0.144506 0.0367,0.03103 0.07858,0.05605 0.115605,0.0867 0.08257,0.07085 0.146972,0.162286 0.231211,0.23121 0.03668,0.03101 0.0786,0.05607 0.115605,0.0867 2.414725,2.059782 5.534309,3.323649 8.959401,3.323649 7.668476,0 13.901522,-6.211851 13.901522,-13.872621 0,-3.912823 -1.641046,-7.448742 -4.24849,-9.970946 -0.05325,-0.05323 -0.119301,-0.09214 -0.173408,-0.144506 -0.03856,-0.03854 -0.0766,-0.07752 -0.115605,-0.115606 -0.06656,-0.06083 -0.134571,-0.113865 -0.202309,-0.173407 -0.05687,-0.05685 -0.115561,-0.117548 -0.173408,-0.173408 -0.01928,-0.01927 -0.03841,-0.03864 -0.0578,-0.0578 -0.02682,-0.02246 -0.05971,-0.03554 -0.0867,-0.0578 -0.01037,-0.0089 -0.01851,-0.02007 -0.0289,-0.0289 -0.05123,-0.04499 -0.09261,-0.100267 -0.144506,-0.144506 -0.01956,-0.01899 -0.03813,-0.03893 -0.0578,-0.0578 -0.03758,-0.03064 -0.0777,-0.05646 -0.115605,-0.0867 -0.0052,-0.0051 -0.02369,0.005 -0.0289,0 -0.05783,-0.05781 -0.114564,-0.116617 -0.173408,-0.173407 -0.0096,-0.0096 -0.01923,-0.01929 -0.0289,-0.0289 -0.04115,-0.03581 -0.07404,-0.08028 -0.115605,-0.115605 -0.05123,-0.04499 -0.09261,-0.100267 -0.144507,-0.144506 -0.01923,-0.01868 -0.03847,-0.03924 -0.0578,-0.0578 -0.03758,-0.03064 -0.0777,-0.05646 -0.115606,-0.0867 -0.0051,-0.005 -0.02378,0.005 -0.0289,0 -0.05116,-0.04205 -0.09274,-0.10318 -0.144506,-0.144506 -0.0089,-0.0087 -0.01994,-0.02025 -0.0289,-0.0289 -0.005,-0.005 -0.02385,0.005 -0.0289,0 -0.04139,-0.03383 -0.07382,-0.08225 -0.115605,-0.115606 -0.0099,-0.0093 -0.01894,-0.0196 -0.0289,-0.0289 -0.01928,-0.01927 -0.03841,-0.03864 -0.0578,-0.0578 -0.03039,-0.02636 -0.05608,-0.06061 -0.0867,-0.0867 -0.01489,-0.01446 -0.04284,-0.01451 -0.0578,-0.0289 -0.04189,-0.03423 -0.07331,-0.08186 -0.115606,-0.115605 -0.0489,-0.04747 -0.09492,-0.09776 -0.144506,-0.144506 -0.0096,-0.0093 -0.01926,-0.01959 -0.0289,-0.0289 -0.005,-0.005 -0.02385,0.005 -0.0289,0 -0.02065,-0.01688 -0.03705,-0.04104 -0.0578,-0.0578 -0.01942,-0.01848 -0.03828,-0.03943 -0.0578,-0.0578 -0.01037,-0.0089 -0.01851,-0.02007 -0.0289,-0.0289 -0.05123,-0.04499 -0.09262,-0.100268 -0.144507,-0.144507 -0.01956,-0.01899 -0.03813,-0.03893 -0.0578,-0.0578 -0.03758,-0.03063 -0.0777,-0.05646 -0.115605,-0.0867 -0.0052,-0.0051 -0.02369,0.005 -0.0289,0 -0.05784,-0.05781 -0.114563,-0.116618 -0.173407,-0.173408 -0.0096,-0.0096 -0.01923,-0.01929 -0.0289,-0.0289 -0.04114,-0.03581 -0.07404,-0.08028 -0.115605,-0.115605 -0.05719,-0.05022 -0.115388,-0.09521 -0.173408,-0.144507 -0.01928,-0.01927 -0.03841,-0.03864 -0.0578,-0.0578 -0.03045,-0.0273 -0.05601,-0.05967 -0.0867,-0.0867 -0.01489,-0.01446 -0.04284,-0.01451 -0.0578,-0.0289 -0.04142,-0.03386 -0.07378,-0.08222 -0.115605,-0.115606 -0.0098,-0.0095 -0.01909,-0.01944 -0.0289,-0.0289 -0.005,-0.005 -0.02385,0.005 -0.0289,0 -0.04139,-0.03383 -0.07382,-0.08225 -0.115606,-0.115605 -0.0099,-0.0093 -0.01894,-0.0196 -0.0289,-0.0289 -0.05123,-0.04499 -0.09261,-0.100268 -0.144506,-0.144507 -0.01956,-0.01899 -0.03813,-0.03893 -0.0578,-0.0578 -0.01015,-0.0091 -0.01872,-0.01983 -0.0289,-0.0289 -0.02712,-0.02198 -0.05941,-0.03602 -0.0867,-0.0578 -0.0045,-0.0047 -0.02438,0.0047 -0.0289,0 -0.0344,-0.03329 -0.05196,-0.08267 -0.0867,-0.115605 -0.0096,-0.0097 -0.01929,-0.01924 -0.0289,-0.0289 -0.0098,-0.0081 -0.01906,-0.02083 -0.0289,-0.0289 -0.005,-0.005 -0.02387,0.005 -0.0289,0 -0.04143,-0.03386 -0.07378,-0.08222 -0.115605,-0.115605 -0.01037,-0.0089 -0.01851,-0.02007 -0.0289,-0.0289 -0.03074,-0.02699 -0.05573,-0.05998 -0.0867,-0.0867 -0.01942,-0.01848 -0.03828,-0.03943 -0.0578,-0.0578 -0.01956,-0.01899 -0.03813,-0.03893 -0.0578,-0.0578 -0.03758,-0.03063 -0.0777,-0.05646 -0.115605,-0.0867 -0.006,-0.0058 -0.02293,0.0058 -0.0289,0 -0.0096,-0.0096 -0.01923,-0.01929 -0.0289,-0.0289 -0.04143,-0.03386 -0.07378,-0.08222 -0.115606,-0.115605 -0.0097,-0.0095 -0.01913,-0.01947 -0.0289,-0.0289 -0.0436,-0.04358 -0.100333,-0.0726 -0.144506,-0.115605 -0.0099,-0.0093 -0.01894,-0.0196 -0.0289,-0.0289 -0.09639,-0.09635 -0.189831,-0.195513 -0.289013,-0.289013 -0.01471,-0.01429 -0.04303,-0.01468 -0.0578,-0.0289 -0.02065,-0.01688 -0.03705,-0.04104 -0.0578,-0.0578 -0.01942,-0.01848 -0.03828,-0.03943 -0.0578,-0.0578 -0.0046,-0.0046 -0.02431,0.0046 -0.0289,0 -0.0049,-0.004 0.0049,-0.02487 0,-0.0289 -0.005,-0.005 -0.02385,0.005 -0.0289,0 -0.04139,-0.03383 -0.07382,-0.08225 -0.115605,-0.115606 -0.0052,-0.0044 0.0052,-0.02448 0,-0.0289 -0.0051,-0.005 -0.02378,0.005 -0.0289,0 -0.05123,-0.04499 -0.09262,-0.100267 -0.144507,-0.144506 -0.01956,-0.01899 -0.03813,-0.03893 -0.0578,-0.0578 -0.03576,-0.03206 -0.07951,-0.05501 -0.115605,-0.0867 -0.0045,-0.0047 -0.02438,0.0047 -0.0289,0 -0.0088,-0.0085 -0.02006,-0.02039 -0.0289,-0.0289 -0.005,-0.0051 0.005,-0.0238 0,-0.0289 -0.01039,-0.0085 -0.01848,-0.02046 -0.0289,-0.0289 -0.03045,-0.02722 -0.05601,-0.05975 -0.0867,-0.0867 -0.02844,-0.02842 -0.05802,-0.05853 -0.0867,-0.0867 -0.02613,-0.02255 -0.0604,-0.03545 -0.0867,-0.0578 -0.03074,-0.02699 -0.05573,-0.05998 -0.0867,-0.0867 -0.01942,-0.01848 -0.03828,-0.03943 -0.0578,-0.0578 -0.01956,-0.01899 -0.03813,-0.03893 -0.0578,-0.0578 -0.03758,-0.03064 -0.0777,-0.05646 -0.115605,-0.0867 -0.006,-0.0058 -0.02293,0.0058 -0.0289,0 -0.0096,-0.0096 -0.01923,-0.01929 -0.0289,-0.0289 -0.04143,-0.03386 -0.07378,-0.08222 -0.115605,-0.115605 -0.01008,-0.0092 -0.01879,-0.01976 -0.0289,-0.0289 -0.0482,-0.04818 -0.09561,-0.09704 -0.144507,-0.144506 -0.0055,-0.005 -0.02341,0.005 -0.0289,0 -0.09639,-0.09636 -0.189831,-0.195513 -0.289013,-0.289013 -0.0065,-0.0054 -0.02235,0.0054 -0.0289,0 -0.0096,-0.0096 -0.01923,-0.01929 -0.0289,-0.0289 -0.04143,-0.03386 -0.07378,-0.08222 -0.115605,-0.115606 -0.0098,-0.0095 -0.01909,-0.01944 -0.0289,-0.0289 -0.005,-0.005 -0.02385,0.005 -0.0289,0 -0.04139,-0.03383 -0.07382,-0.08225 -0.115605,-0.115605 -0.0099,-0.0093 -0.01894,-0.0196 -0.0289,-0.0289 -0.05123,-0.04499 -0.09262,-0.100268 -0.144506,-0.144507 -0.01956,-0.01899 -0.03813,-0.03893 -0.0578,-0.0578 -0.03576,-0.03207 -0.07951,-0.05501 -0.115605,-0.0867 -0.0051,-0.005 -0.02377,0.005 -0.0289,0 -0.05783,-0.05781 -0.114563,-0.116618 -0.173407,-0.173408 -0.0482,-0.04818 -0.09561,-0.09704 -0.144507,-0.144506 -0.05123,-0.04499 -0.09261,-0.100268 -0.144506,-0.144507 -0.01923,-0.01868 -0.03847,-0.03924 -0.0578,-0.0578 -0.03758,-0.03063 -0.0777,-0.05646 -0.115605,-0.0867 -0.0051,-0.005 -0.02378,0.005 -0.0289,0 -0.05116,-0.04205 -0.09274,-0.10318 -0.144507,-0.144507 -0.0089,-0.0087 -0.01994,-0.02025 -0.0289,-0.0289 -0.005,-0.005 -0.02385,0.005 -0.0289,0 -0.04139,-0.03383 -0.07382,-0.08225 -0.115605,-0.115605 -0.0099,-0.0093 -0.01894,-0.0196 -0.0289,-0.0289 -0.01928,-0.01927 -0.03841,-0.03864 -0.0578,-0.0578 -0.03039,-0.02635 -0.05608,-0.06061 -0.0867,-0.0867 -0.01489,-0.01446 -0.04284,-0.01451 -0.0578,-0.0289 -0.04189,-0.03423 -0.07331,-0.08186 -0.115605,-0.115606 -0.0489,-0.04747 -0.09492,-0.09776 -0.144506,-0.144506 -0.0096,-0.0093 -0.01926,-0.01959 -0.0289,-0.0289 -0.005,-0.005 -0.02385,0.005 -0.0289,0 -0.02064,-0.01687 -0.03706,-0.04105 -0.0578,-0.0578 -0.01942,-0.01848 -0.03828,-0.03943 -0.0578,-0.0578 -0.01037,-0.0089 -0.01851,-0.02007 -0.0289,-0.0289 -0.05123,-0.04499 -0.09261,-0.100267 -0.144506,-0.144506 -0.01956,-0.01899 -0.03813,-0.03893 -0.0578,-0.0578 -0.03758,-0.03064 -0.0777,-0.05646 -0.115605,-0.0867 -0.0052,-0.0051 -0.02369,0.005 -0.0289,0 -0.05783,-0.05781 -0.114564,-0.116618 -0.173408,-0.173408 -0.0096,-0.0096 -0.01923,-0.01929 -0.0289,-0.0289 -0.04114,-0.03581 -0.07404,-0.08028 -0.115605,-0.115605 -0.05123,-0.04499 -0.09261,-0.100268 -0.144507,-0.144506 -0.0056,-0.0055 -0.02328,0.0054 -0.0289,0 -0.01928,-0.01927 -0.03841,-0.03865 -0.0578,-0.0578 -0.01015,-0.0091 -0.01872,-0.01983 -0.0289,-0.0289 -0.01942,-0.01848 -0.03828,-0.03943 -0.0578,-0.0578 -0.0051,-0.005 -0.02378,0.005 -0.0289,0 -0.05116,-0.04205 -0.09274,-0.10318 -0.144506,-0.144506 -0.0089,-0.0087 -0.01994,-0.02025 -0.0289,-0.0289 -0.005,-0.005 -0.02385,0.005 -0.0289,0 -0.04139,-0.03383 -0.07382,-0.08225 -0.115605,-0.115605 -0.0099,-0.0093 -0.01894,-0.0196 -0.0289,-0.0289 -0.01928,-0.01927 -0.03841,-0.03864 -0.0578,-0.0578 -0.03039,-0.02635 -0.05608,-0.06061 -0.0867,-0.0867 -0.01489,-0.01446 -0.04284,-0.01451 -0.0578,-0.0289 -0.04189,-0.03423 -0.07331,-0.08186 -0.115606,-0.115605 -0.0045,-0.0047 -0.02438,0.0047 -0.0289,0 -0.0344,-0.03329 -0.05196,-0.08267 -0.0867,-0.115605 -0.0096,-0.0097 -0.01929,-0.01924 -0.0289,-0.0289 -0.0098,-0.0081 -0.01906,-0.02083 -0.0289,-0.0289 -0.005,-0.005 -0.02385,0.005 -0.0289,0 -0.04143,-0.03386 -0.07378,-0.08222 -0.115605,-0.115605 -0.01037,-0.0089 -0.01851,-0.02007 -0.0289,-0.0289 -0.05123,-0.04499 -0.09262,-0.100268 -0.144507,-0.144507 -0.01986,-0.01867 -0.03783,-0.03925 -0.0578,-0.0578 -0.03758,-0.03064 -0.0777,-0.05646 -0.115605,-0.0867 -0.0098,-0.0095 -0.0191,-0.01944 -0.0289,-0.0289 -0.05497,-0.05136 -0.117611,-0.09404 -0.173407,-0.144506 -0.09639,-0.09636 -0.189831,-0.195513 -0.289013,-0.289013 -0.006,-0.0052 -0.02285,0.0051 -0.0289,0 -0.01896,-0.01895 -0.03874,-0.03896 -0.0578,-0.0578 -0.03045,-0.0273 -0.05601,-0.05967 -0.0867,-0.0867 -0.01471,-0.01429 -0.04303,-0.01468 -0.0578,-0.0289 -0.02065,-0.01688 -0.03705,-0.04104 -0.0578,-0.0578 -0.01942,-0.01848 -0.03828,-0.03944 -0.0578,-0.0578 -0.0046,-0.0046 -0.02431,0.0046 -0.0289,0 -0.0049,-0.004 0.0049,-0.02487 0,-0.0289 -0.005,-0.005 -0.02385,0.005 -0.0289,0 -0.04139,-0.03383 -0.07382,-0.08225 -0.115606,-0.115605 -0.0046,-0.0046 -0.02431,0.0046 -0.0289,0 -0.0047,-0.0042 0.0047,-0.02467 0,-0.0289 -0.05123,-0.04499 -0.09261,-0.100267 -0.144506,-0.144506 -0.01987,-0.01867 -0.03783,-0.03925 -0.0578,-0.0578 -0.03576,-0.03206 -0.07951,-0.05501 -0.115605,-0.0867 -0.0045,-0.0047 -0.02438,0.0047 -0.0289,0 -0.0088,-0.0085 -0.02007,-0.02039 -0.0289,-0.0289 -0.005,-0.0051 0.005,-0.0238 0,-0.0289 -0.01039,-0.0085 -0.01848,-0.02046 -0.0289,-0.0289 -0.03045,-0.02722 -0.05601,-0.05975 -0.0867,-0.0867 -0.02843,-0.02842 -0.05802,-0.05853 -0.0867,-0.0867 -0.02613,-0.02255 -0.0604,-0.03545 -0.0867,-0.0578 -0.03074,-0.02699 -0.05573,-0.05998 -0.0867,-0.0867 -0.01942,-0.01848 -0.03828,-0.03943 -0.0578,-0.0578 -0.02076,-0.0177 -0.03694,-0.04023 -0.0578,-0.0578 -0.03758,-0.03064 -0.0777,-0.05646 -0.115605,-0.0867 -0.006,-0.0058 -0.02293,0.0058 -0.0289,0 -0.0096,-0.0096 -0.01923,-0.01929 -0.0289,-0.0289 -0.01011,-0.0085 -0.01877,-0.02039 -0.0289,-0.0289 -0.03124,-0.02538 -0.05524,-0.06159 -0.0867,-0.0867 -0.0097,-0.0095 -0.01913,-0.01947 -0.0289,-0.0289 -0.0436,-0.04358 -0.100333,-0.0726 -0.144506,-0.115606 -0.0099,-0.0093 -0.01894,-0.0196 -0.0289,-0.0289 -0.0482,-0.04818 -0.09561,-0.09704 -0.144506,-0.144506 -0.04966,-0.04667 -0.09416,-0.09856 -0.144507,-0.144507 -0.01471,-0.01429 -0.04303,-0.01468 -0.0578,-0.0289 -0.01011,-0.0085 -0.01877,-0.02039 -0.0289,-0.0289 -0.01041,-0.0085 -0.01846,-0.02047 -0.0289,-0.0289 -0.01942,-0.01848 -0.03828,-0.03943 -0.0578,-0.0578 -0.0046,-0.0046 -0.02431,0.0046 -0.0289,0 -0.0049,-0.004 0.0049,-0.02487 0,-0.0289 -0.005,-0.005 -0.02385,0.005 -0.0289,0 -0.04139,-0.03383 -0.07382,-0.08225 -0.115605,-0.115605 -0.0099,-0.0093 -0.01894,-0.01959 -0.0289,-0.0289 -0.05123,-0.04499 -0.09261,-0.100268 -0.144507,-0.144507 -0.01987,-0.01867 -0.03783,-0.03925 -0.0578,-0.0578 -0.03576,-0.03206 -0.07951,-0.05501 -0.115606,-0.0867 -0.01956,-0.01899 -0.03813,-0.03893 -0.0578,-0.0578 -0.01039,-0.0085 -0.01849,-0.02046 -0.0289,-0.0289 -0.07647,-0.06835 -0.153228,-0.135638 -0.231211,-0.202309 -0.0098,-0.0095 -0.01912,-0.01941 -0.0289,-0.0289 -0.07172,-0.06298 -0.129292,-0.140795 -0.202309,-0.202309 -0.03758,-0.03064 -0.0777,-0.05646 -0.115605,-0.0867 -0.01489,-0.01446 -0.04284,-0.01451 -0.0578,-0.0289 -0.01011,-0.0085 -0.01877,-0.02039 -0.0289,-0.0289 -0.03124,-0.02538 -0.05524,-0.06159 -0.0867,-0.0867 -0.01009,-0.0092 -0.01879,-0.01975 -0.0289,-0.0289 -0.0482,-0.04818 -0.09561,-0.09704 -0.144507,-0.144506 -0.0055,-0.005 -0.02341,0.005 -0.0289,0 -0.0482,-0.04818 -0.09561,-0.09704 -0.144507,-0.144507 -0.04966,-0.04667 -0.09416,-0.09856 -0.144506,-0.144506 -0.0064,-0.0055 -0.02245,0.0055 -0.0289,0 -0.0096,-0.0096 -0.01923,-0.01929 -0.0289,-0.0289 -0.01011,-0.0085 -0.01877,-0.02039 -0.0289,-0.0289 -0.03156,-0.02564 -0.05491,-0.06133 -0.0867,-0.0867 -0.0098,-0.0095 -0.01909,-0.01944 -0.0289,-0.0289 -0.005,-0.005 -0.02385,0.005 -0.0289,0 -0.04143,-0.03386 -0.07378,-0.08222 -0.115606,-0.115605 -0.0099,-0.0093 -0.01894,-0.0196 -0.0289,-0.0289 -0.05123,-0.04499 -0.09261,-0.100267 -0.144506,-0.144506 -0.01987,-0.01867 -0.03783,-0.03925 -0.0578,-0.0578 -0.03576,-0.03206 -0.07951,-0.05501 -0.115605,-0.0867 -0.01956,-0.01899 -0.03813,-0.03893 -0.0578,-0.0578 -0.01052,-0.0086 -0.01835,-0.02035 -0.0289,-0.0289 -0.07647,-0.06835 -0.153228,-0.135639 -0.23121,-0.202309 -0.0098,-0.0095 -0.01912,-0.01941 -0.0289,-0.0289 -0.07172,-0.06298 -0.129292,-0.140795 -0.202309,-0.202309 -0.03758,-0.03063 -0.0777,-0.05646 -0.115605,-0.0867 -0.01956,-0.01899 -0.03813,-0.03893 -0.0578,-0.0578 -0.03567,-0.03217 -0.0796,-0.0549 -0.115606,-0.0867 -0.0089,-0.0087 -0.01994,-0.02025 -0.0289,-0.0289 -0.005,-0.005 -0.02385,0.005 -0.0289,0 -0.04143,-0.03386 -0.07378,-0.08222 -0.115605,-0.115606 -0.0099,-0.0093 -0.01894,-0.01959 -0.0289,-0.0289 -0.01928,-0.01927 -0.03841,-0.03864 -0.0578,-0.0578 -0.03039,-0.02635 -0.05608,-0.06061 -0.0867,-0.0867 -0.0099,-0.0093 -0.01894,-0.0196 -0.0289,-0.0289 -0.0051,-0.005 -0.02376,0.0049 -0.0289,0 -0.04189,-0.03423 -0.07331,-0.08186 -0.115605,-0.115605 -0.0489,-0.04747 -0.09492,-0.09776 -0.144506,-0.144506 -0.0096,-0.0093 -0.01926,-0.01959 -0.0289,-0.0289 -0.005,-0.005 -0.02385,0.005 -0.0289,0 -0.02065,-0.01688 -0.03705,-0.04104 -0.0578,-0.0578 -0.01942,-0.01848 -0.03828,-0.03943 -0.0578,-0.0578 -0.01037,-0.0089 -0.01851,-0.02007 -0.0289,-0.0289 -0.05123,-0.04499 -0.09262,-0.100268 -0.144507,-0.144507 -0.01987,-0.01867 -0.03783,-0.03925 -0.0578,-0.0578 -0.03758,-0.03064 -0.0777,-0.05646 -0.115606,-0.0867 -0.01956,-0.01899 -0.03813,-0.03893 -0.0578,-0.0578 -0.04597,-0.04133 -0.09799,-0.07488 -0.144507,-0.115605 -0.0096,-0.0096 -0.01923,-0.01929 -0.0289,-0.0289 -0.04114,-0.03581 -0.07404,-0.08028 -0.115605,-0.115605 -0.05719,-0.05023 -0.115388,-0.09521 -0.173408,-0.144507 -0.01928,-0.01927 -0.03841,-0.03864 -0.0578,-0.0578 -0.03156,-0.02564 -0.05491,-0.06134 -0.0867,-0.0867 -0.01956,-0.01899 -0.03813,-0.03893 -0.0578,-0.0578 -0.03567,-0.03217 -0.0796,-0.0549 -0.115605,-0.0867 -0.0098,-0.0095 -0.01909,-0.01944 -0.0289,-0.0289 -0.005,-0.005 -0.02385,0.005 -0.0289,0 -0.04142,-0.03386 -0.07378,-0.08222 -0.115605,-0.115605 -0.0099,-0.0093 -0.01894,-0.0196 -0.0289,-0.0289 -0.05123,-0.04499 -0.09261,-0.100268 -0.144507,-0.144507 -0.01987,-0.01867 -0.03783,-0.03925 -0.0578,-0.0578 -0.03758,-0.03064 -0.0777,-0.05646 -0.115605,-0.0867 -0.0045,-0.0047 -0.02438,0.0047 -0.0289,0 -0.0344,-0.03329 -0.05197,-0.08267 -0.0867,-0.115605 -0.0096,-0.0097 -0.01929,-0.01924 -0.0289,-0.0289 -0.0098,-0.0081 -0.01906,-0.02083 -0.0289,-0.0289 -0.005,-0.005 -0.02385,0.005 -0.0289,0 -0.04142,-0.03386 -0.07378,-0.08222 -0.115605,-0.115605 -0.01037,-0.0089 -0.01851,-0.02007 -0.0289,-0.0289 -0.05123,-0.04499 -0.09262,-0.100267 -0.144506,-0.144506 -0.01987,-0.01867 -0.03783,-0.03925 -0.0578,-0.0578 -0.03758,-0.03064 -0.0777,-0.05646 -0.115605,-0.0867 -0.01956,-0.01899 -0.03813,-0.03893 -0.0578,-0.0578 -0.04581,-0.04119 -0.09814,-0.07502 -0.144506,-0.115605 -0.09639,-0.09636 -0.189831,-0.195514 -0.289013,-0.289013 -0.006,-0.0052 -0.02285,0.0051 -0.0289,0 -0.01896,-0.01895 -0.03874,-0.03896 -0.0578,-0.0578 -0.03156,-0.02564 -0.05491,-0.06133 -0.0867,-0.0867 -0.01923,-0.01867 -0.03847,-0.03924 -0.0578,-0.0578 -0.03567,-0.03217 -0.0796,-0.0549 -0.115605,-0.0867 -0.0044,-0.0045 -0.02446,0.0045 -0.0289,0 -0.0049,-0.004 0.0049,-0.02487 0,-0.0289 -0.005,-0.005 -0.02385,0.005 -0.0289,0 -0.04143,-0.03386 -0.07378,-0.08222 -0.115605,-0.115606 -0.0099,-0.0093 -0.01894,-0.01959 -0.0289,-0.0289 -0.05123,-0.04499 -0.09261,-0.100267 -0.144506,-0.144506 -0.01987,-0.01867 -0.03783,-0.03925 -0.0578,-0.0578 -0.03758,-0.03064 -0.0777,-0.05646 -0.115605,-0.0867 -0.0044,-0.0045 -0.02452,0.0045 -0.0289,0 -0.05302,-0.05299 -0.09064,-0.121271 -0.144507,-0.173408 -0.04294,-0.04292 -0.101008,-0.07324 -0.144506,-0.115605 -0.01037,-0.0089 -0.01851,-0.02007 -0.0289,-0.0289 -0.03074,-0.02699 -0.05573,-0.05998 -0.0867,-0.0867 -0.01942,-0.01848 -0.03828,-0.03943 -0.0578,-0.0578 -0.02076,-0.0177 -0.03694,-0.04023 -0.0578,-0.0578 -0.03758,-0.03064 -0.0777,-0.05646 -0.115605,-0.0867 -0.0051,-0.005 -0.02378,0.005 -0.0289,0 -0.0058,-0.0053 0.0058,-0.02361 0,-0.0289 -0.0098,-0.0095 -0.01907,-0.01947 -0.0289,-0.0289 -0.01,-0.009 -0.01891,-0.01996 -0.0289,-0.0289 -0.02712,-0.02198 -0.05941,-0.03602 -0.0867,-0.0578 -0.0097,-0.0095 -0.01913,-0.01947 -0.0289,-0.0289 -0.0436,-0.04358 -0.100333,-0.0726 -0.144506,-0.115605 -0.0099,-0.0093 -0.01894,-0.0196 -0.0289,-0.0289 -0.0482,-0.04818 -0.09561,-0.09704 -0.144506,-0.144507 -0.04966,-0.04667 -0.09416,-0.09856 -0.144506,-0.144506 -0.0064,-0.0055 -0.02245,0.0055 -0.0289,0 -0.0096,-0.0096 -0.01923,-0.01929 -0.0289,-0.0289 -0.01011,-0.0085 -0.01877,-0.02039 -0.0289,-0.0289 -0.03156,-0.02564 -0.05491,-0.06133 -0.0867,-0.0867 -0.0098,-0.0095 -0.0191,-0.01944 -0.0289,-0.0289 -0.005,-0.005 -0.02385,0.005 -0.0289,0 -0.04143,-0.03386 -0.07378,-0.08222 -0.115605,-0.115605 -0.0099,-0.0093 -0.01894,-0.0196 -0.0289,-0.0289 -0.05123,-0.04499 -0.09262,-0.100268 -0.144507,-0.144507 -0.01987,-0.01867 -0.03783,-0.03925 -0.0578,-0.0578 -0.03758,-0.03064 -0.0777,-0.05646 -0.115606,-0.0867 -0.01956,-0.01899 -0.03813,-0.03893 -0.0578,-0.0578 -0.01052,-0.0086 -0.01835,-0.02035 -0.0289,-0.0289 -0.07647,-0.06835 -0.153228,-0.135638 -0.231211,-0.202309 -0.0098,-0.0095 -0.01912,-0.01941 -0.0289,-0.0289 -0.07172,-0.06298 -0.129292,-0.140796 -0.202309,-0.20231 -0.03758,-0.03064 -0.0777,-0.05646 -0.115605,-0.0867 -0.01956,-0.01899 -0.03813,-0.03893 -0.0578,-0.0578 -0.03567,-0.03217 -0.0796,-0.0549 -0.115605,-0.0867 -0.01008,-0.0092 -0.01879,-0.01975 -0.0289,-0.0289 -0.0482,-0.04818 -0.09561,-0.09704 -0.144507,-0.144507 -0.0055,-0.005 -0.02341,0.005 -0.0289,0 -0.0482,-0.04818 -0.09561,-0.09704 -0.144507,-0.144506 -0.04966,-0.04667 -0.09416,-0.09856 -0.144506,-0.144507 -0.0064,-0.0055 -0.02245,0.0055 -0.0289,0 -0.0095,-0.0095 -0.0194,-0.01945 -0.0289,-0.0289 -0.01011,-0.0085 -0.01877,-0.02039 -0.0289,-0.0289 -0.03156,-0.02564 -0.05491,-0.06133 -0.0867,-0.0867 -0.0096,-0.0093 -0.01926,-0.01959 -0.0289,-0.0289 -0.005,-0.005 -0.02385,0.005 -0.0289,0 -0.02065,-0.01688 -0.03705,-0.04104 -0.0578,-0.0578 -0.01942,-0.01848 -0.03828,-0.03943 -0.0578,-0.0578 -0.01037,-0.0089 -0.01851,-0.02007 -0.0289,-0.0289 -0.05123,-0.04499 -0.09261,-0.100267 -0.144506,-0.144506 -0.01987,-0.01867 -0.03783,-0.03925 -0.0578,-0.0578 -0.03758,-0.03064 -0.0777,-0.05646 -0.115605,-0.0867 -0.01956,-0.01899 -0.03813,-0.03893 -0.0578,-0.0578 -0.04597,-0.04133 -0.09799,-0.07488 -0.144506,-0.115606 -0.0096,-0.0096 -0.01923,-0.01929 -0.0289,-0.0289 -0.04115,-0.03581 -0.07404,-0.08028 -0.115606,-0.115605 -0.07172,-0.06298 -0.129291,-0.140795 -0.202309,-0.202309 -0.03758,-0.03064 -0.0777,-0.05646 -0.115605,-0.0867 -0.01956,-0.01899 -0.03813,-0.03893 -0.0578,-0.0578 -0.03567,-0.03217 -0.0796,-0.0549 -0.115606,-0.0867 -0.0089,-0.0087 -0.01994,-0.02025 -0.0289,-0.0289 -0.005,-0.005 -0.02385,0.005 -0.0289,0 -0.04143,-0.03386 -0.07378,-0.08222 -0.115605,-0.115605 -0.0099,-0.0093 -0.01894,-0.01959 -0.0289,-0.0289 -0.01928,-0.01927 -0.03841,-0.03864 -0.0578,-0.0578 -0.03039,-0.02635 -0.05608,-0.06061 -0.0867,-0.0867 -0.0099,-0.0093 -0.01894,-0.0196 -0.0289,-0.0289 -0.0051,-0.005 -0.02376,0.0049 -0.0289,0 -0.04189,-0.03423 -0.07331,-0.08186 -0.115605,-0.115605 -0.0044,-0.0045 -0.02452,0.0045 -0.0289,0 -0.0344,-0.03329 -0.05196,-0.08267 -0.0867,-0.115605 -0.0094,-0.0095 -0.01945,-0.0194 -0.0289,-0.0289 -0.0098,-0.0081 -0.01906,-0.02083 -0.0289,-0.0289 -0.005,-0.005 -0.02385,0.005 -0.0289,0 -0.04143,-0.03386 -0.07378,-0.08222 -0.115605,-0.115605 -0.01037,-0.0089 -0.01851,-0.02007 -0.0289,-0.0289 -0.05123,-0.04499 -0.09261,-0.100268 -0.144507,-0.144507 -0.01986,-0.01867 -0.03783,-0.03925 -0.0578,-0.0578 -0.03758,-0.03064 -0.0777,-0.05646 -0.115606,-0.0867 -0.01956,-0.01899 -0.03813,-0.03893 -0.0578,-0.0578 -0.04581,-0.04119 -0.09814,-0.07502 -0.144507,-0.115605 -0.09639,-0.09636 -0.189831,-0.195513 -0.289013,-0.289013 -0.006,-0.0052 -0.02285,0.0051 -0.0289,0 -0.01928,-0.01927 -0.03841,-0.03864 -0.0578,-0.0578 -0.03156,-0.02564 -0.05491,-0.06133 -0.0867,-0.0867 -0.01956,-0.01899 -0.03813,-0.03893 -0.0578,-0.0578 -0.03567,-0.03217 -0.0796,-0.0549 -0.115605,-0.0867 -0.0098,-0.0095 -0.01909,-0.01944 -0.0289,-0.0289 -0.005,-0.005 -0.02385,0.005 -0.0289,0 -0.04143,-0.03386 -0.07378,-0.08222 -0.115605,-0.115605 -0.0099,-0.0093 -0.01894,-0.0196 -0.0289,-0.0289 -0.05123,-0.04499 -0.09262,-0.100267 -0.144507,-0.144506 -0.01986,-0.01867 -0.03783,-0.03925 -0.0578,-0.0578 -0.03758,-0.03064 -0.0777,-0.05646 -0.115605,-0.0867 -0.0044,-0.0045 -0.02452,0.0045 -0.0289,0 -0.0344,-0.03329 -0.05196,-0.08267 -0.0867,-0.115605 -0.0094,-0.0095 -0.01945,-0.0194 -0.0289,-0.0289 -0.0098,-0.0081 -0.01906,-0.02083 -0.0289,-0.0289 -0.005,-0.005 -0.02387,0.005 -0.0289,0 -0.04143,-0.03386 -0.07378,-0.08222 -0.115606,-0.115605 -0.01037,-0.0089 -0.01851,-0.02007 -0.0289,-0.0289 -0.03074,-0.02699 -0.05573,-0.05998 -0.0867,-0.0867 -0.01942,-0.01848 -0.03828,-0.03943 -0.0578,-0.0578 -0.02076,-0.0177 -0.03694,-0.04023 -0.0578,-0.0578 -0.03758,-0.03064 -0.0777,-0.05646 -0.115605,-0.0867 -0.0052,-0.0044 0.0052,-0.02449 0,-0.0289 -0.0251,-0.02281 -0.06143,-0.03517 -0.0867,-0.0578 -0.02712,-0.02198 -0.05941,-0.03602 -0.0867,-0.0578 -0.01008,-0.0092 -0.01879,-0.01976 -0.0289,-0.0289 -0.0482,-0.04818 -0.09561,-0.09704 -0.144507,-0.144507 -0.0055,-0.005 -0.02341,0.005 -0.0289,0 -0.0482,-0.04818 -0.09561,-0.09704 -0.144506,-0.144506 -0.04966,-0.04667 -0.09416,-0.09856 -0.144507,-0.144507 -0.01923,-0.01867 -0.03847,-0.03924 -0.0578,-0.0578 -0.03567,-0.03217 -0.0796,-0.0549 -0.115606,-0.0867 -0.0044,-0.0045 -0.02446,0.0045 -0.0289,0 -0.0049,-0.004 0.0049,-0.02487 0,-0.0289 -0.0052,-0.0052 -0.0237,0.0052 -0.0289,0 -0.04143,-0.03386 -0.07378,-0.08222 -0.115605,-0.115605 -0.0046,-0.0046 -0.02431,0.0046 -0.0289,0 -0.0047,-0.0042 0.0047,-0.02467 0,-0.0289 -0.02561,-0.02249 -0.03202,-0.0644 -0.0578,-0.0867 -0.02532,-0.02413 -0.0612,-0.03386 -0.0867,-0.0578 -0.02076,-0.01769 -0.03694,-0.04023 -0.0578,-0.0578 -0.03758,-0.03064 -0.0777,-0.05646 -0.115605,-0.0867 -0.01379,-0.01427 -0.04395,-0.01469 -0.0578,-0.0289 -0.04189,-0.03423 -0.07331,-0.08186 -0.115606,-0.115605 -0.0049,-0.0047 0.0049,-0.02416 0,-0.0289 -0.04358,-0.04356 -0.10035,-0.07262 -0.144506,-0.115605 -0.01035,-0.0085 -0.01853,-0.02039 -0.0289,-0.0289 -0.01025,-0.009 -0.01863,-0.01993 -0.0289,-0.0289 -0.01012,-0.0091 -0.01875,-0.0198 -0.0289,-0.0289 -0.0051,-0.005 -0.02382,0.005 -0.0289,0 -0.02063,-0.01666 -0.03707,-0.04125 -0.0578,-0.0578 -0.01037,-0.0089 -0.01851,-0.02007 -0.0289,-0.0289 -0.02049,-0.01799 -0.03721,-0.03993 -0.0578,-0.0578 -0.02989,-0.02768 -0.05657,-0.05928 -0.0867,-0.0867 -0.0049,-0.0047 -0.0241,0.0048 -0.0289,0 z"
       id="path12141"
       inkscape:connector-curvature="0"
       clip-path="url(#clipPath12381)"
       inkscape:export-filename="/home/wes/AndroidStudioProjects/MobileMemento/app/src/main/res/drawable-xxhdpi/ic_launcher.png"
       inkscape:export-xdpi="360"
       inkscape:export-ydpi="360" />
    <path
       style="opacity:0.15;fill:#000000"
       d="m 33.898701,13.711368 c 0.04868,0.04717 0.09651,0.09663 0.144506,0.144507 -0.0144,-0.0145 -0.01415,-0.04365 -0.0289,-0.0578 -0.03573,-0.03214 -0.07954,-0.05493 -0.115605,-0.0867 z"
       id="path12139"
       inkscape:connector-curvature="0"
       clip-path="url(#clipPath12377)"
       inkscape:export-filename="/home/wes/AndroidStudioProjects/MobileMemento/app/src/main/res/drawable-xxhdpi/ic_launcher.png"
       inkscape:export-xdpi="360"
       inkscape:export-ydpi="360" />
    <path
       style="opacity:0.15;fill:#000000"
       d="m 32.916057,12.931033 c 0.32532,0.263051 0.682523,0.48954 0.982644,0.780335 -0.116195,-0.105714 -0.227067,-0.216141 -0.346816,-0.317914 -0.07708,-0.06769 -0.152633,-0.136318 -0.23121,-0.202309 -0.03156,-0.02564 -0.05491,-0.06133 -0.0867,-0.0867 -0.09241,-0.07623 -0.223479,-0.09951 -0.317914,-0.173408 z"
       id="path12137"
       inkscape:connector-curvature="0"
       clip-path="url(#clipPath12373)"
       inkscape:export-filename="/home/wes/AndroidStudioProjects/MobileMemento/app/src/main/res/drawable-xxhdpi/ic_launcher.png"
       inkscape:export-xdpi="360"
       inkscape:export-ydpi="360" />
    <path
       id="path10478"
       d="m 22.858407,17.641944 0,7.716646 0.173407,-0.0867 0,0.23121 0.173408,-0.0867 0,0.23121 0.173408,-0.0867 0,0.23121 0.144506,-0.0867 0,0.260112 0.173408,-0.0867 0,0.23121 0.173408,-0.0867 0,0.231211 0.173408,-0.0867 0,0.23121 0.173407,-0.0867 0,0.260112 0.173408,-0.0867 0,0.23121 0.173408,-0.0867 0,0.231211 0.144506,-0.0578 0,0.202309 0.173408,-0.0867 0,0.260112 0.173408,-0.0867 0,0.231211 0.173408,-0.0867 0,0.23121 0.173407,-0.0867 0,0.23121 0.173408,-0.0867 0,0.260111 0.144507,-0.0578 0,0.202309 0.173407,-0.0867 0,0.23121 0.173408,-0.0867 0,0.231211 0.173408,-0.0867 0,0.260111 0.173408,-0.0867 0,0.231211 0.173407,-0.0867 0,0.23121 0.144507,-0.0867 0,0.231211 0.173408,-0.0867 0,0.260112 0.173407,-0.0867 0,0.23121 0.173408,-0.0867 0,0.23121 0.173408,-0.0867 0,0.23121 0.173408,-0.0867 0,0.260112 0.144506,-0.0867 0,0.23121 0.173408,-0.0867 0,0.231211 0.173408,-0.0867 0,0.23121 0.173407,-0.0867 0,0.260112 0.173408,-0.0867 0,0.23121 0.173408,-0.0867 0,0.231211 0.173408,-0.0867 0,0.23121 0.144506,-0.0867 0,0.260112 0.173408,-0.0867 0,0.23121 0.173408,-0.0867 0,0.23121 0.173407,-0.0867 0,0.23121 0.173408,-0.0867 0,0.260111 0.173408,-0.0867 0,0.231211 0.144506,-0.0867 0,0.23121 0.173408,-0.0867 0,0.231211 0.173408,-0.0867 0,0.260111 0.173408,-0.0867 0,0.231211 0.173407,-0.0867 0,0.23121 0.173408,-0.0867 0,0.231211 0.144507,-0.0578 0,0.23121 0.173407,-0.0867 0,0.23121 0.173408,-0.0867 0,0.23121 0.173408,-0.0867 0,0.23121 0.173408,-0.0867 0,0.260112 0.173407,-0.0867 0,0.23121 0.144507,-0.0578 0,0.202309 0.173408,-0.0867 0,0.23121 0.173407,-0.0867 0,0.260112 0.173408,-0.0867 0,0.23121 0.173408,-0.0867 0,0.231211 0.173408,-0.0867 0,0.23121 0.173408,-0.0867 0,0.260112 0.144506,-0.0867 0,0.23121 0.173408,-0.0867 0,0.23121 0.173407,-0.0867 0,0.23121 0.173408,-0.0867 0,0.260112 0.173408,-0.0867 0,0.231211 0.173408,-0.0867 0,0.23121 0.144506,-0.0578 0,0.20231 0.173408,-0.0867 0,0.260111 0.173408,-0.0867 0,0.231211 0.173408,-0.0867 0,0.23121 0.173407,-0.0867 0,0.231211 0.173408,-0.0867 0,0.260111 0.144506,-0.0578 0,0.202309 0.173408,-0.0867 0,0.23121 0.173408,-0.0867 0,0.231211 0.173408,-0.0867 0,0.260112 0.173408,-0.0867 0,0.23121 0.173407,-0.0867 0,0.231211 0.144507,-0.0867 0,0.23121 0.173408,-0.0867 0,0.260112 0.173407,-0.0867 0,0.23121 0.173408,-0.0867 0,0.231211 0.173408,-0.0867 0,0.23121 0.173408,-0.0867 0,0.260112 0.173407,-0.0867 0,0.23121 0.144507,-0.0578 0,0.202309 0.173408,-0.0867 0,0.23121 0.173407,-0.0867 0,0.260112 0.173408,-0.0867 0,0.231211 0.173408,-0.0867 0,0.23121 0.173408,-0.0867 0,0.23121 0.144506,-0.0867 0,0.260111 0.173408,-0.0867 0,0.231211 0.173408,-0.0867 0,0.23121 0.173407,-0.0867 0,0.231211 0.173408,-0.0867 0,0.260111 0.173408,-0.0867 0,0.23121 0.144506,-0.0867 0,0.23121 0.173408,-0.0867 0,0.231211 0.173408,-0.0867 0,0.260112 0.173408,-0.0867 0,0.23121 0.173407,-0.0867 0,0.23121 0.173408,-0.0867 0,0.23121 0.144507,-0.0578 0,0.231211 0.173407,-0.0867 0,0.23121 0.173408,-0.0867 0,0.231211 0.173408,-0.0867 0,0.23121 0.173408,-0.0867 0,0.260112 0.173407,-0.0867 0,0.23121 0.173408,-0.0867 0,0.231211 0.144507,-0.0867 0,0.23121 0.173407,-0.0867 0,0.260112 0.173408,-0.0867 0,0.23121 0.173408,-0.0867 0,0.23121 0.173408,-0.0867 0,0.23121 0.173407,-0.0867 0,0.260111 0.144507,-0.0867 0,0.231211 0.173408,-0.0867 0,0.23121 0.173407,-0.0867 0,0.231211 0.173408,-0.0867 0,0.260111 0.173408,-0.0867 0,0.231211 0.173408,-0.0867 0,0.23121 0.144506,-0.0578 0,0.202309 0.173408,-0.0867 0,0.260112 0.173408,-0.0867 0,0.23121 0.173407,-0.0867 0,0.23121 0.173408,-0.0867 0,0.23121 0.173408,-0.0867 0,0.260112 0.144506,-0.0578 0,0.202309 0.173408,-0.0867 0,0.231211 0.173408,-0.0867 0,0.23121 0.173408,-0.0867 0,0.260112 0.173407,-0.0867 0,0.23121 0.173408,-0.0867 0,0.231211 0.144507,-0.0867 0,0.23121 0.173407,-0.0867 0,0.260112 0.173408,-0.0867 0,0.23121 0.173408,-0.0867 0,0.23121 0.173408,-0.0867 0,0.23121 0.173407,-0.0867 0,0.260111 0.173408,-0.0867 0,0.231211 0.144507,-0.0578 0,0.202309 0.173407,-0.0867 0,0.231211 0.173408,-0.0867 0,0.260111 0.173408,-0.0867 0,0.231211 0.173408,-0.0867 0,0.23121 0.173408,-0.0867 0,0.231211 0.144506,-0.0867 0,0.260111 0.173408,-0.0867 0,0.23121 0.173407,-0.0867 0,0.23121 0.173408,-0.0867 0,0.23121 0.173408,-0.0867 0,0.260112 0.173408,-0.0867 0,0.23121 0.144506,-0.0867 0,0.231211 0.173408,-0.0867 0,0.23121 0.173408,-0.0867 0,0.260112 0.173408,-0.0867 0,0.23121 0.173407,-0.0867 0,0.231211 0.173408,-0.0867 0,0.23121 0.144507,-0.0578 0,0.23121 0.173407,-0.0867 0,0.23121 0.173408,-0.0867 0,0.23121 0.173408,-0.0867 0,0.23121 0.173408,-0.0867 0,0.260112 0.173407,-0.0867 0,0.231211 0.173408,-0.0867 0,0.23121 0.144507,-0.0867 0,0.231211 0.173407,-0.0867 0,0.260111 0.173408,-0.0867 0,0.231211 0.173408,-0.0867 0,0.23121 0.173408,-0.0867 0,0.231211 0.173407,-0.0867 0,0.260111 0.144507,-0.0867 0,0.23121 0.173408,-0.0867 0,0.23121 0.173407,-0.0867 0,0.231211 0.173408,-0.0867 0,0.260112 0.173408,-0.0867 0,0.23121 0.173408,-0.0867 0,0.231211 0.144506,-0.0578 0,0.202309 0.173408,-0.0867 0,0.260112 0.173408,-0.0867 0,0.23121 0.173407,-0.0867 0,0.231211 0.173408,-0.0867 0,0.23121 0.173408,-0.0867 0,0.231211 0.144506,-0.0867 0,0.260111 0.173408,-0.0867 0,0.231211 0.173408,-0.0867 0,0.23121 0.173408,-0.0867 0,0.231211 0.173407,-0.0867 0,0.260112 0.173408,-0.0867 0,0.23121 0.173408,-0.0867 0,0.23121 0.144506,-0.0578 0,0.202309 0.173408,-0.0867 0,0.260112 0.173408,-0.0867 0,0.23121 0.173408,-0.0867 0,0.231211 0.173407,-0.0867 0,0.23121 0.173408,-0.0867 0,0.260112 0.144507,-0.0578 0,0.202309 0.173407,-0.0867 0,0.231211 2.312104,-1.156052 0,-6.531692 -0.173408,0 0,-0.173408 -0.144506,0 0,-0.144506 -0.173408,0 0,-0.144507 -0.173408,0 0,-0.144506 -0.173408,0 0,-0.173408 -0.173407,0 0,-0.144507 -0.173408,0 0,-0.144506 -0.144507,0 0,-0.144507 -0.173407,0 0,-0.173407 -0.173408,0 0,-0.144507 -0.173408,0 0,-0.144506 -0.173408,0 0,-0.144507 -0.173407,0 0,-0.173407 -0.173408,0 0,-0.144507 -0.144507,0 0,-0.144506 -0.173407,0 0,-0.144507 -0.173408,0 0,-0.173408 -0.173408,0 0,-0.144506 -0.173408,0 0,-0.144507 -0.173407,0 0,-0.144506 -0.144507,0 0,-0.173408 -0.173408,0 0,-0.144506 -0.173407,0 0,-0.144507 -0.173408,0 0,-0.144506 -0.173408,0 0,-0.173408 -0.173408,0 0,-0.144506 -0.144506,0 0,-0.144507 -0.173408,0 0,-0.144506 -0.173408,0 0,-0.173408 -0.173407,0 0,-0.144507 -0.173408,0 0,-0.144506 -0.173408,0 0,-0.144507 -0.144506,0 0,-0.173407 -0.173408,0 0,-0.144507 -0.173408,0 0,-0.144506 -0.173408,0 0,-0.144507 -0.173408,0 0,-0.173407 -0.173407,0 0,-0.144507 -0.173408,0 0,-0.144506 -0.144506,0 0,-0.144507 -0.173408,0 0,-0.173408 -0.173408,0 0,-0.144506 -0.173408,0 0,-0.144507 -0.173408,0 0,-0.144506 -0.173407,0 0,-0.173408 -0.144507,0 0,-0.144506 -0.173408,0 0,-0.144507 -0.173407,0 0,-0.144506 -0.173408,0 0,-0.173408 -0.173408,0 0,-0.144506 -0.173408,0 0,-0.144507 -0.144506,0 0,-0.144506 -0.173408,0 0,-0.173408 -0.173408,0 0,-0.144507 -0.173407,0 0,-0.144506 -0.173408,0 0,-0.144506 -0.173408,0 0,-0.173408 -0.144506,0 0,-0.144507 -0.173408,0 0,-0.144506 -0.173408,0 0,-0.144507 -0.173408,0 0,-0.173407 -0.173407,0 0,-0.144507 -0.173408,0 0,-0.144506 -0.173408,0 0,-0.144507 -0.144506,0 0,-0.173408 -0.173408,0 0,-0.144506 -0.173408,0 0,-0.144506 -0.173408,0 0,-0.144507 -0.173407,0 0,-0.173408 -0.173408,0 0,-0.144506 -0.144507,0 0,-0.144507 -0.173407,0 0,-0.144506 -0.173408,0 0,-0.173408 -0.173408,0 0,-0.144506 -0.173408,0 0,-0.144507 -0.173407,0 0,-0.144506 -0.144507,0 0,-0.173408 -0.173408,0 0,-0.144506 -0.173407,0 0,-0.144507 -0.173408,0 0,-0.144506 -0.173408,0 0,-0.173408 -0.173408,0 0,-0.144507 -0.144506,0 0,-0.144506 -0.173408,0 0,-0.144507 -0.173408,0 0,-0.173407 -0.173407,0 0,-0.144507 -0.173408,0 0,-0.144506 -0.173408,0 0,-0.144507 -0.144506,0 0,-0.173408 -0.173408,0 0,-0.144506 -0.173408,0 0,-0.144506 -0.173408,0 0,-0.144507 -0.173407,0 0,-0.173408 -0.173408,0 0,-0.144506 -0.173408,0 0,-0.144507 -0.144506,0 0,-0.144506 -0.173408,0 0,-0.173408 -0.173408,0 0,-0.144506 -0.173408,0 0,-0.144507 -0.173407,0 0,-0.144506 -0.173408,0 0,-0.173408 -0.144507,0 0,-0.144506 -0.173407,0 0,-0.144507 -0.173408,0 0,-0.144506 -0.173408,0 0,-0.173408 -0.173408,0 0,-0.144507 -0.173407,0 0,-0.144506 -0.144507,0 0,-0.144507 -0.173408,0 0,-0.173407 -0.173407,0 0,-0.144507 -0.173408,0 0,-0.144506 -0.173408,0 0,-0.144507 -0.173408,0 0,-0.173407 -0.144506,0 0,-0.144507 -0.173408,0 0,-0.144506 -0.173408,0 0,-0.144507 -0.173407,0 0,-0.173408 -0.173408,0 0,-0.144506 -0.173408,0 0,-0.144507 -0.173408,0 0,-0.144506 -0.144506,0 0,-0.173408 -0.173408,0 0,-0.144506 -0.173408,0 0,-0.144507 -0.173408,0 0,-0.144506 -0.173407,0 0,-0.173408 -0.173408,0 0,-0.144506 -0.144507,0 0,-0.144507 -0.173407,0 0,-0.144506 -0.173408,0 0,-0.173408 -0.173408,0 0,-0.144507 -0.173408,0 0,-0.144506 -0.173407,0 0,-0.144507 -0.144507,0 0,-0.173407 -0.173408,0 0,-0.144507 -0.173407,0 0,-0.144506 -0.173408,0 0,-0.144507 -0.173408,0 0,-0.173407 -0.173408,0 0,-0.144507 -0.144506,0 0,-0.144506 -0.173408,0 0,-0.144507 -0.173408,0 0,-0.173408 -0.173407,0 0,-0.144506 -0.173408,0 0,-0.144507 -0.173408,0 0,-0.144506 -0.173408,0 0,-0.173408 -0.144506,0 0,-0.144506 -0.173408,0 0,-0.144507 -0.173408,0 0,-0.144506 -0.173407,0 0,-0.173408 -0.173408,0 0,-0.144506 -0.173408,0 0,-0.144507 -0.144506,0 0,-0.144506 -0.173408,0 0,-0.144507 -0.173408,0 0,-0.173408 -0.173408,0 0,-0.144506 -0.173407,0 0,-0.144506 -0.173408,0 0,-0.144507 -0.144507,0 0,-0.173408 -0.173407,0 0,-0.144506 -0.173408,0 0,-0.144507 -0.173408,0 0,-0.144506 -0.173408,0 0,-0.173408 -0.173407,0 0,-0.144506 -0.144507,0 0,-0.144507 -0.173408,0 0,-0.144506 -0.173407,0 0,-0.173408 -0.173408,0 0,-0.144506 -0.173408,0 0,-0.144507 -0.173408,0 0,-0.144506 -0.173407,0 0,-0.173408 -0.144507,0 0,-0.144507 -0.173408,0 0,-0.144506 -0.173407,0 0,-0.144507 -0.173408,0 0,-0.173407 -0.173408,0 0,-0.144507 -0.173408,0 0,-0.144506 -0.144506,0 0,-0.144507 -0.173408,0 0,-0.173407 -0.173408,0 0,-0.144507 -0.173407,0 0,-0.144506 -0.173408,0 0,-0.144507 -0.173408,0 0,-0.173408 -0.144506,0 0,-0.144506 -0.173408,0 0,-0.144507 -0.173408,0 0,-0.144506 -0.173408,0 0,-0.173408 -0.173407,0 0,-0.144506 -0.173408,0 0,-0.144507 -0.144507,0 0,-0.144506 -0.173407,0 0,-0.173408 -0.173408,0 0,-0.144506 -0.173408,0 0,-0.144507 -0.173408,0 0,-0.144506 -0.173407,0 0,-0.173408 -0.173408,0 0,-0.144507 -0.144507,0 0,-0.144506 -0.173407,0 0,-0.144507 -0.173408,0 0,-0.173407 -0.173408,0 0,-0.144507 -2.312103,0 z"
       style="opacity:0.2;fill:url(#linearGradient12161);fill-opacity:1"
       inkscape:connector-curvature="0"
       clip-path="url(#clipPath12369)"
       inkscape:export-filename="/home/wes/AndroidStudioProjects/MobileMemento/app/src/main/res/drawable-xxhdpi/ic_launcher.png"
       inkscape:export-xdpi="360"
       inkscape:export-ydpi="360" />
    <path
       style="opacity:0.2;fill:url(#linearGradient12169);fill-opacity:1"
       d="m 25.17051,24.202538 -2.312103,1.156052 0.202309,0.115605 -0.0289,0.0289 0.202309,0.115605 -0.0289,0.0289 0.202309,0.115606 -0.0289,0.0289 0.23121,0.144506 -0.0867,0.0289 0.202309,0.115605 -0.0289,0.0289 0.202309,0.115605 -0.0289,0.0289 0.202309,0.115605 -0.0289,0.0289 0.23121,0.144507 -0.0578,0.0289 0.202309,0.115605 -0.0289,0.0289 0.202309,0.115606 -0.0289,0.0289 0.202309,0.115605 -0.0578,0.0289 0.231211,0.144507 -0.0578,0.0289 0.202309,0.115605 -0.0289,0.0289 0.202309,0.115605 -0.0289,0.0289 0.202309,0.115605 -0.0289,0.0289 0.231211,0.144507 -0.0578,0.0289 0.202309,0.115605 -0.0578,0.0289 0.202309,0.115605 -0.0289,0.0289 0.202309,0.115605 -0.0289,0.0289 0.23121,0.144506 -0.0578,0.0289 0.202309,0.115606 -0.0289,0.0289 0.202309,0.115605 -0.0289,0.0289 0.202309,0.115605 -0.0578,0.0289 0.23121,0.144506 -0.0578,0.0289 0.202309,0.115605 -0.0289,0.0289 0.202309,0.115605 -0.0289,0.0289 0.202309,0.115606 -0.0289,0.0289 0.23121,0.144506 -0.0578,0.0289 0.202309,0.115605 -0.0578,0.0289 0.202309,0.115605 -0.0289,0.0289 0.202309,0.115605 -0.0289,0.0289 0.23121,0.144507 -0.0578,0.0289 0.202309,0.115605 -0.0289,0.0289 0.202309,0.115605 -0.0289,0.0289 0.202309,0.115605 -0.0289,0.0289 0.23121,0.144507 -0.0867,0.0289 0.202309,0.115605 -0.0289,0.0289 0.202309,0.115606 -0.0289,0.0289 0.202309,0.115605 -0.0289,0.0289 0.231211,0.144507 -0.0578,0.0289 0.202309,0.115605 -0.0289,0.0289 0.202309,0.115605 -0.0578,0.0289 0.202309,0.115605 -0.0289,0.0289 0.231211,0.144506 -0.0578,0.0289 0.202309,0.115605 -0.0289,0.0289 0.202309,0.115605 -0.0289,0.0289 0.20231,0.115605 -0.0289,0.0289 0.231211,0.144506 -0.0867,0.0289 0.202309,0.115606 -0.0289,0.0289 0.202309,0.115605 -0.0289,0.0289 0.202309,0.115606 -0.0289,0.0289 0.23121,0.144506 -0.0578,0.0289 0.202309,0.115605 -0.0289,0.0289 0.20231,0.115605 -0.0578,0.0289 0.202309,0.115605 -0.0289,0.0289 0.23121,0.144507 -0.0578,0.0289 0.20231,0.115605 -0.0289,0.0289 0.202309,0.115605 -0.0289,0.0289 0.202309,0.115605 -0.0289,0.0289 0.23121,0.144507 -0.0578,0.0289 0.202309,0.115605 -0.0578,0.0289 0.202309,0.115606 -0.0289,0.0289 0.202309,0.115605 -0.0289,0.0289 0.231211,0.144507 -0.0578,0.0289 0.202309,0.115605 -0.0289,0.0289 0.202309,0.115605 -0.0289,0.0289 0.202309,0.115605 -0.0578,0.0289 0.231211,0.144506 -0.0578,0.0289 0.202309,0.115605 -0.0289,0.0289 0.202309,0.115605 -0.0289,0.0289 0.202309,0.115605 -0.0289,0.0289 0.231211,0.144506 -0.0578,0.0289 0.202309,0.115606 -0.0578,0.0289 0.20231,0.115605 -0.0289,0.0289 0.202309,0.115606 -0.0289,0.0289 0.23121,0.144506 -0.0578,0.0289 0.202309,0.115605 -0.0289,0.0289 0.202309,0.115605 -0.0289,0.0289 0.202309,0.115605 -0.0578,0.0289 0.23121,0.144506 -0.0578,0.0289 0.202309,0.115605 -0.0289,0.0289 0.202309,0.115605 -0.0289,0.0289 0.202309,0.115605 -0.0289,0.0289 0.23121,0.144507 -0.0578,0.0289 0.202309,0.115605 -0.0289,0.0289 0.202309,0.115606 -0.0578,0.0289 0.202309,0.115605 -0.0289,0.0289 0.23121,0.144507 -0.0578,0.0289 0.202309,0.115605 -0.0289,0.0289 0.202309,0.115605 -0.0289,0.0289 0.202309,0.115605 -0.0289,0.0289 0.23121,0.144507 -0.0867,0.0289 0.202309,0.115605 -0.0289,0.0289 0.202309,0.115605 -0.0289,0.0289 0.202309,0.115605 -0.0289,0.0289 0.231211,0.144506 -0.0578,0.0289 0.202309,0.115606 -0.0289,0.0289 0.202309,0.115605 -0.0578,0.0289 0.202309,0.115605 -0.0289,0.0289 0.23121,0.144506 -0.0578,0.0289 0.202309,0.115605 -0.0289,0.0289 0.202309,0.115605 -0.0289,0.0289 0.202309,0.115606 -0.0289,0.0289 0.23121,0.144506 -0.0867,0.0289 0.202309,0.115605 -0.0289,0.0289 0.202309,0.115605 -0.0289,0.0289 0.202309,0.115605 -0.0289,0.0289 0.23121,0.144507 -0.0578,0.0289 0.202309,0.115605 -0.0289,0.0289 0.202309,0.115606 -0.0289,0.0289 0.202309,0.115605 -0.0578,0.0289 0.23121,0.144507 -0.0578,0.0289 0.202309,0.115605 -0.0289,0.0289 0.202309,0.115606 -0.0289,0.0289 0.202309,0.115605 -0.0289,0.0289 0.23121,0.144507 -0.0578,0.0289 0.202309,0.115605 -0.0578,0.0289 0.202309,0.115605 -0.0289,0.0289 0.202309,0.115605 -0.0289,0.0289 0.231211,0.144506 -0.0578,0.0289 0.202309,0.115606 -0.0289,0.0289 0.202309,0.115605 -0.0289,0.0289 0.202309,0.115605 -0.0578,0.0289 0.23121,0.144506 -0.0578,0.0289 0.202309,0.115605 -0.0289,0.0289 0.202309,0.115605 -0.0289,0.0289 0.202309,0.115606 -0.0289,0.0289 0.231211,0.144506 -0.0578,0.0289 0.202309,0.115605 -0.0578,0.0289 0.202309,0.115605 -0.0289,0.0289 0.202309,0.115605 -0.0289,0.0289 0.23121,0.144507 -0.0578,0.0289 0.202309,0.115605 -0.0289,0.0289 0.20231,0.115605 -0.0289,0.0289 0.202309,0.115605 -0.0578,0.0289 0.23121,0.144507 -0.0578,0.0289 0.202309,0.115605 -0.0289,0.0289 0.202309,0.115606 -0.0289,0.0289 0.202309,0.115605 -0.0289,0.0289 0.23121,0.144507 -0.0578,0.0289 0.20231,0.115605 -0.0289,0.0289 0.202309,0.115605 -0.0578,0.0289 0.202309,0.115605 -0.0289,0.0289 0.231211,0.144506 -0.0578,0.0289 0.202309,0.115605 -0.0289,0.0289 0.202309,0.115605 -0.0289,0.0289 0.202309,0.115605 -0.0289,0.0289 0.23121,0.144506 -0.0867,0.0289 0.202309,0.115606 -0.0289,0.0289 0.202309,0.115605 -0.0289,0.0289 0.20231,0.115606 -0.0289,0.0289 0.231211,0.144506 -0.0578,0.0289 0.202309,0.115605 -0.0289,0.0289 0.202309,0.115605 -0.0578,0.0289 0.202309,0.115605 -0.0289,0.0289 0.23121,0.144506 -0.0578,0.0289 0.202309,0.115605 -0.0289,0.0289 0.202309,0.115605 -0.0289,0.0289 0.202309,0.115605 -0.0289,0.0289 0.23121,0.144507 -0.0867,0.0289 0.202309,0.115605 -0.0289,0.0289 0.202309,0.115606 -0.0289,0.0289 0.202309,0.115605 -0.0289,0.0289 0.23121,0.144507 -0.0578,0.0289 0.202309,0.115605 -0.0289,0.0289 0.202309,0.115605 -0.0289,0.0289 0.202309,0.115605 -0.0578,0.0289 0.23121,0.144506 -0.0578,0.0289 0.202309,0.115605 -0.0289,0.0289 0.202309,0.115605 -0.0289,0.0289 0.202309,0.115605 -0.0289,0.0289 0.23121,0.144506 -0.0578,0.0289 0.202309,0.115606 -0.0578,0.0289 0.202309,0.115605 -0.0289,0.0289 0.202309,0.115606 -0.0289,0.0289 0.231211,0.144506 -0.0578,0.0289 0.202309,0.115605 -0.0289,0.0289 0.202309,0.115605 -0.0289,0.0289 0.202309,0.115605 -0.0578,0.0289 0.23121,0.144506 -0.0578,0.0289 0.202309,0.115605 -0.0289,0.0289 0.202309,0.115605 -0.0289,0.0289 0.202309,0.115605 -0.0289,0.0289 0.202309,0.115605 -0.0289,0.0289 0.23121,0.144506 -0.0867,0.0289 0.202309,0.115606 -0.0289,0.0289 0.202309,0.115605 -0.0289,0.0289 0.202309,0.115605 -0.0289,0.0289 0.23121,0.144506 -0.0578,0.0289 0.202309,0.115605 -0.0289,0.0289 0.202309,0.115605 -0.0289,0.0289 0.202309,0.115606 -0.0578,0.0289 0.231211,0.144506 -0.0578,0.0289 0.202309,0.115605 -0.0289,0.0289 0.202309,0.115605 -0.0289,0.0289 0.202309,0.115605 -0.0289,0.0289 0.231211,0.144507 -0.0578,0.0289 0.202309,0.115605 -0.0578,0.0289 0.202309,0.115605 -0.0289,0.0289 6.618397,3.930576 1.098249,-1.878584 -0.202309,-0.115606 0.0289,-0.0289 -0.202309,-0.115605 0.0289,-0.0578 -0.202309,-0.115605 0.0289,-0.0289 -0.173407,-0.115605 0.0289,-0.0289 -0.202309,-0.115605 0.0289,-0.0289 -0.202309,-0.115605 0.0289,-0.0578 -0.202309,-0.115605 0.0289,-0.0289 -0.202309,-0.115605 0.0289,-0.0289 -0.202309,-0.115605 0.0289,-0.0289 -0.173408,-0.115605 0.0289,-0.0578 -0.202309,-0.115605 0.0289,-0.0289 -0.202309,-0.115606 0.0289,-0.0289 -0.202309,-0.115605 0.0289,-0.0289 -0.202309,-0.115606 0.0289,-0.0578 -0.202309,-0.115605 0.0289,-0.0289 -0.202309,-0.115605 0.0289,-0.0289 -0.173408,-0.115605 0.0289,-0.0289 -0.202309,-0.115606 0.0289,-0.0578 -0.202309,-0.115605 0.0289,-0.0289 -0.202309,-0.115605 0.0289,-0.0289 -0.202309,-0.115605 0.0289,-0.0289 -0.202309,-0.115605 0.0289,-0.0578 -0.173408,-0.0867 0.0289,-0.0578 -0.202309,-0.115605 0.0289,-0.0289 -0.202309,-0.115606 0.0289,-0.0289 -0.202309,-0.115605 0.0289,-0.0578 -0.202309,-0.115605 0.0289,-0.0289 -0.202309,-0.115605 0.0289,-0.0289 -0.173408,-0.115605 0.0289,-0.0289 -0.202309,-0.115605 0.0289,-0.0578 -0.202309,-0.115605 0.0289,-0.0289 -0.202309,-0.115605 0.0289,-0.0289 -0.202309,-0.115605 0.0289,-0.0289 -0.202309,-0.115605 0.0289,-0.0578 -0.173407,-0.0867 0.0289,-0.0578 -0.202309,-0.115606 0.0289,-0.0289 -0.202309,-0.115605 0.0289,-0.0289 -0.202309,-0.115605 0.0289,-0.0578 -0.202309,-0.115605 0.0289,-0.0289 -0.202309,-0.115605 0.0289,-0.0289 -0.202309,-0.115605 0.0289,-0.0289 -0.173407,-0.115606 0.0289,-0.0578 -0.202309,-0.115605 0.0289,-0.0289 -0.202309,-0.115605 0.0289,-0.0289 -0.202309,-0.115605 0.0289,-0.0289 -0.202309,-0.115605 0.0289,-0.0578 -0.202309,-0.115606 0.0289,-0.0289 -0.173408,-0.0867 0.0289,-0.0578 -0.202309,-0.115605 0.0289,-0.0289 -0.202309,-0.115605 0.0289,-0.0578 -0.202309,-0.115605 0.0289,-0.0289 -0.202309,-0.115605 0.0289,-0.0289 -0.20231,-0.115606 0.0289,-0.0289 -0.173408,-0.115605 0.0289,-0.0578 -0.202309,-0.115605 0.0289,-0.0289 -0.20231,-0.115605 0.0289,-0.0289 -0.202309,-0.115605 0.0289,-0.0289 -0.202309,-0.115605 0.0289,-0.0578 -0.202309,-0.115605 0.0289,-0.0289 -0.173408,-0.0867 0.0289,-0.0578 -0.202309,-0.115605 0.0289,-0.0289 -0.202309,-0.115605 0.0289,-0.0578 -0.20231,-0.115605 0.0289,-0.0289 -0.202309,-0.115606 0.0289,-0.0289 -0.202309,-0.115605 0.0289,-0.0289 -0.202309,-0.115606 0.0289,-0.0578 -0.173407,-0.0867 0.0289,-0.0578 -0.202309,-0.115605 0.0289,-0.0289 -0.202309,-0.115605 0.0289,-0.0289 -0.202309,-0.115605 0.0289,-0.0578 -0.202309,-0.115606 0.0289,-0.0289 -0.202309,-0.115605 0.0289,-0.0289 -0.173408,-0.115605 0.0289,-0.0289 -0.202309,-0.115605 0.0289,-0.0578 -0.202309,-0.115606 0.0289,-0.0289 -0.202309,-0.115605 0.0289,-0.0289 -0.202309,-0.115606 0.0289,-0.0289 -0.202309,-0.115605 0.0289,-0.0578 -0.173408,-0.0867 0.0289,-0.0578 -0.202309,-0.115605 0.0289,-0.0289 -0.202309,-0.115605 0.0289,-0.0289 -0.202309,-0.115605 0.0289,-0.0578 -0.202309,-0.115605 0.0289,-0.0289 -0.202309,-0.115605 0.0289,-0.0289 -0.173408,-0.115605 0.0289,-0.0289 -0.202309,-0.115605 0.0289,-0.0289 -0.202309,-0.115605 0.0289,-0.0578 -0.202309,-0.115606 0.0289,-0.0289 -0.202309,-0.115605 0.0289,-0.0289 -0.202309,-0.115606 0.0289,-0.0289 -0.202309,-0.115605 0.0289,-0.0578 -0.173408,-0.0867 0.0289,-0.0578 -0.202309,-0.115605 0.0289,-0.0289 -0.202309,-0.115605 0.0289,-0.0289 -0.202309,-0.115605 0.0289,-0.0578 -0.202309,-0.115605 0.0289,-0.0289 -0.202309,-0.115605 0.0289,-0.0289 -0.173407,-0.115605 0.0289,-0.0289 -0.202309,-0.115605 0.0289,-0.0578 -0.202309,-0.115605 0.0289,-0.0289 -0.202309,-0.115606 0.0289,-0.0289 -0.202309,-0.115605 0.0289,-0.0289 -0.202309,-0.115605 0.0289,-0.0578 -0.173408,-0.0867 0.0289,-0.0578 -0.202309,-0.115605 0.0289,-0.0289 -0.202309,-0.115605 0.0289,-0.0289 -0.202309,-0.115606 0.0289,-0.0578 -0.202309,-0.115605 0.0289,-0.0289 -0.202309,-0.115605 0.0289,-0.0289 -0.173408,-0.115605 0.0289,-0.0289 -0.202309,-0.115605 0.0289,-0.0578 -0.202309,-0.115606 0.0289,-0.0289 -0.202309,-0.115605 0.0289,-0.0289 -0.202309,-0.115606 0.0289,-0.0289 -0.202309,-0.115605 0.0289,-0.0578 -0.202309,-0.115605 0.0289,-0.0289 -0.173408,-0.115605 0.0289,-0.0289 -0.202309,-0.115606 0.0289,-0.0289 -0.202309,-0.115605 0.0289,-0.0578 -0.202309,-0.115605 0.0289,-0.0289 -0.202309,-0.115605 0.0289,-0.0289 -0.202309,-0.115605 0.0289,-0.0289 -0.173408,-0.115605 0.0289,-0.0578 -0.202309,-0.115605 0.0289,-0.0289 -0.202309,-0.115606 0.0289,-0.0289 -0.202309,-0.115605 0.0289,-0.0289 -0.202309,-0.115605 0.0289,-0.0578 -0.202309,-0.115605 0.0289,-0.0289 -0.173407,-0.115606 0.0289,-0.0289 -0.202309,-0.115605 0.0289,-0.0289 -0.202309,-0.115606 0.0289,-0.0578 -0.202309,-0.115605 0.0289,-0.0289 -0.20231,-0.115605 0.0289,-0.0289 -0.202309,-0.115605 0.0289,-0.0289 -0.173408,-0.115605 0.0289,-0.0578 -0.202309,-0.115606 0.0289,-0.0289 -0.202309,-0.115605 0.0289,-0.0289 -0.202309,-0.115605 0.0289,-0.0289 -0.202309,-0.115605 0.0289,-0.0578 -0.20231,-0.115605 0.0289,-0.0289 -0.202309,-0.115605 0.0289,-0.0289 -0.173408,-0.115606 0.0289,-0.0289 -0.20231,-0.115605 0.0289,-0.0578 -0.202309,-0.115605 0.0289,-0.0289 -0.202309,-0.115605 0.0289,-0.0289 -0.202309,-0.115605 0.0289,-0.0289 -0.202309,-0.115605 0.0289,-0.0578 -0.173408,-0.0867 0.0289,-0.0578 -0.202309,-0.115605 0.0289,-0.0289 -0.20231,-0.115605 0.0289,-0.0289 -0.202309,-0.115605 0.0289,-0.0578 -0.202309,-0.115605 0.0289,-0.0289 -0.202309,-0.115606 0.0289,-0.0289 -0.173407,-0.115605 0.0289,-0.0289 -0.202309,-0.115606 0.0289,-0.0578 -0.202309,-0.115605 0.0289,-0.0289 -0.202309,-0.115605 0.0289,-0.0289 -0.202309,-0.115605 0.0289,-0.0289 -0.202309,-0.115605 0.0289,-0.0578 -0.173408,-0.0867 0.0289,-0.0578 -0.202309,-0.115605 0.0289,-0.0289 -0.202309,-0.115605 0.0289,-0.0289 -0.202309,-0.115605 0.0289,-0.0578 -0.202309,-0.115606 0.0289,-0.0289 -0.202309,-0.115605 0.0289,-0.0289 -0.173408,-0.115606 0.0289,-0.0289 -0.202309,-0.115605 0.0289,-0.0578 -0.202309,-0.115605 0.0289,-0.0289 -0.202309,-0.115605 0.0289,-0.0289 -0.202309,-0.115605 0.0289,-0.0289 -0.202309,-0.115605 0.0289,-0.0578 -0.202309,-0.115605 0.0289,-0.0289 -0.173408,-0.115605 0.0289,-0.0289 -0.202309,-0.115605 0.0289,-0.0289 -0.202309,-0.115605 0.0289,-0.0578 -0.202309,-0.115605 0.0289,-0.0289 -0.202309,-0.115606 0.0289,-0.0289 -0.202309,-0.115605 0.0289,-0.0289 -0.173408,-0.115606 0.0289,-0.0578 -0.202309,-0.115605 0.0289,-0.0289 -0.202309,-0.115605 0.0289,-0.0289 -0.202309,-0.115605 0.0289,-0.0289 -0.202309,-0.115605 0.0289,-0.0578 -0.202309,-0.115605 0.0289,-0.0289 -0.173407,-0.115605 0.0289,-0.0289 -0.202309,-0.115605 0.0289,-0.0289 -0.202309,-0.115605 0.0289,-0.0578 -0.202309,-0.115606 0.0289,-0.0289 -0.202309,-0.115605 0.0289,-0.0289 -0.202309,-0.115606 0.0289,-0.0289 -0.173408,-0.115605 0.0289,-0.0578 -0.202309,-0.115605 0.0289,-0.0289 -0.202309,-0.115605 0.0289,-0.0289 -0.202309,-0.115605 0.0289,-0.0289 -0.202309,-0.115605 0.0289,-0.0578 -0.202309,-0.115605 0.0289,-0.0289 -0.202309,-0.115605 0.0289,-0.0289 -0.173408,-0.115605 0.0289,-0.0289 -0.202309,-0.115605 0.0289,-0.0578 -5.404542,-3.179142 z"
       id="path11315"
       inkscape:connector-curvature="0"
       clip-path="url(#clipPath12365)"
       inkscape:export-filename="/home/wes/AndroidStudioProjects/MobileMemento/app/src/main/res/drawable-xxhdpi/ic_launcher.png"
       inkscape:export-xdpi="360"
       inkscape:export-ydpi="360" />
    <path
       style="fill:#ffffff"
       d="m 5.8933474,23.79792 0.1734077,0.173407 5.8091599,5.895864 6.184877,-6.213778 -4.624207,0 c 0,-1.489379 0.290217,-2.900786 0.838137,-4.190687 0.547921,-1.289902 1.362215,-2.464076 2.341005,-3.439254 0.97879,-0.975178 2.146644,-1.766893 3.439254,-2.312104 1.29261,-0.54521 2.701308,-0.838137 4.190688,-0.838137 1.48938,0 2.900786,0.292927 4.190687,0.838137 1.289901,0.545211 2.464076,1.336926 3.439254,2.312104 0.975178,0.975178 1.766893,2.149352 2.312104,3.439254 0.54521,1.289901 0.838137,2.701308 0.838137,4.190687 0,1.489381 -0.292927,2.900787 -0.838137,4.190688 -0.545211,1.289901 -1.336926,2.464076 -2.312104,3.439254 -0.975178,0.975177 -2.149353,1.766893 -3.439254,2.312103 -1.289901,0.545211 -2.701307,0.838138 -4.190687,0.838138 -1.491307,0 -2.899764,-0.294312 -4.190688,-0.838138 -1.290924,-0.543826 -2.464317,-1.337166 -3.439254,-2.312103 l -1.531768,1.502867 -0.650279,0.628604 c 0.578017,0.559662 1.369323,1.287941 2.037541,1.741302 0.736681,0.499812 1.51226,0.919302 2.341004,1.271657 0.828745,0.352355 1.698734,0.623485 2.601117,0.809236 0.902382,0.185751 1.845829,0.289013 2.803425,0.289013 0.95856,0 1.899094,-0.104195 2.803426,-0.289013 0.904332,-0.184817 1.769752,-0.458206 2.601116,-0.809236 0.831364,-0.35103 1.630251,-0.77302 2.369906,-1.271657 0.739655,-0.498637 1.422786,-1.077536 2.051992,-1.705176 0.629206,-0.62764 1.205162,-1.313956 1.705176,-2.051992 0.500015,-0.738037 0.919573,-1.511176 1.271657,-2.341005 0.352085,-0.829829 0.623824,-1.698101 0.809236,-2.601116 0.185413,-0.903015 0.289013,-1.845829 0.289013,-2.803426 0,-0.957596 -0.1036,-1.90041 -0.289013,-2.803425 -0.185412,-0.903015 -0.457151,-1.771288 -0.809236,-2.601117 -0.352084,-0.829828 -0.771642,-1.602968 -1.271657,-2.341004 -0.500014,-0.738037 -1.07597,-1.424352 -1.705176,-2.051992 -0.04799,-0.04787 -0.09582,-0.09733 -0.144506,-0.144507 -0.300121,-0.290795 -0.657324,-0.517284 -0.982644,-0.780335 -2.357272,-1.844584 -5.300151,-3.0057341 -8.525882,-3.0057341 -7.668477,0 -13.872621,6.2118521 -13.872621,13.8726211 z"
       id="path8555"
       inkscape:connector-curvature="0"
       sodipodi:nodetypes="cccccssssssssssssscccssssssssssssssssscscc"
       clip-path="url(#clipPath12361)"
       inkscape:export-filename="/home/wes/AndroidStudioProjects/MobileMemento/app/src/main/res/drawable-xxhdpi/ic_launcher.png"
       inkscape:export-xdpi="360"
       inkscape:export-ydpi="360" />
    <path
       style="fill:#ffffff"
       d="m 22.684999,17.497438 0,7.687744 6.618396,3.930576 1.098249,-1.878584 -5.404542,-3.208044 0,-6.531692 -2.312103,0 z"
       id="path9369"
       inkscape:connector-curvature="0"
       clip-path="url(#clipPath12357)"
       inkscape:export-filename="/home/wes/AndroidStudioProjects/MobileMemento/app/src/main/res/drawable-xxhdpi/ic_launcher.png"
       inkscape:export-xdpi="360"
       inkscape:export-ydpi="360" />
    <path
       d="m -9.280777,18.213127 a 12.639534,12.639534 0 1 1 -25.279068,0 12.639534,12.639534 0 1 1 25.279068,0 z"
       sodipodi:ry="12.639534"
       sodipodi:rx="12.639534"
       sodipodi:cy="18.213127"
       sodipodi:cx="-21.920311"
       id="path8453"
       style="opacity:0.15;fill:#ffffff;fill-opacity:1;fill-rule:nonzero;stroke:none"
       sodipodi:type="arc"
       clip-path="url(#clipPath12353)"
       inkscape:export-filename="/home/wes/AndroidStudioProjects/MobileMemento/app/src/main/res/drawable-xxhdpi/ic_launcher.png"
       inkscape:export-xdpi="360"
       inkscape:export-ydpi="360" />
  </g>
</svg>
